<svg width="25" height="26" viewBox="0 0 25 26" fill="none" xmlns="http://www.w3.org/2000/svg">
<path d="M7.69229 0.5C6.92725 0.5 6.19353 0.803914 5.65256 1.34488C5.11159 1.88585 4.80768 2.61957 4.80768 3.38462V22.6154C4.80768 23.3804 5.11159 24.1141 5.65256 24.6551C6.19353 25.1961 6.92725 25.5 7.69229 25.5H18.2692C19.0343 25.5 19.768 25.1961 20.3089 24.6551C20.8499 24.1141 21.1538 23.3804 21.1538 22.6154V3.38462C21.1538 2.61957 20.8499 1.88585 20.3089 1.34488C19.768 0.803914 19.0343 0.5 18.2692 0.5L7.69229 0.5ZM11.0577 1.46154H14.9038C15.0313 1.46154 15.1536 1.51219 15.2438 1.60235C15.3339 1.69251 15.3846 1.8148 15.3846 1.94231C15.3846 2.06982 15.3339 2.1921 15.2438 2.28226C15.1536 2.37242 15.0313 2.42308 14.9038 2.42308H11.0577C10.9302 2.42308 10.8079 2.37242 10.7177 2.28226C10.6276 2.1921 10.5769 2.06982 10.5769 1.94231C10.5769 1.8148 10.6276 1.69251 10.7177 1.60235C10.8079 1.51219 10.9302 1.46154 11.0577 1.46154ZM7.21152 3.38462H18.75C18.8775 3.38462 18.9998 3.43527 19.0899 3.52543C19.1801 3.61559 19.2308 3.73788 19.2308 3.86538V20.2115C19.2308 20.339 19.1801 20.4613 19.0899 20.5515C18.9998 20.6417 18.8775 20.6923 18.75 20.6923H7.21152C7.08402 20.6923 6.96173 20.6417 6.87157 20.5515C6.78141 20.4613 6.73076 20.339 6.73076 20.2115V3.86538C6.73076 3.73788 6.78141 3.61559 6.87157 3.52543C6.96173 3.43527 7.08402 3.38462 7.21152 3.38462ZM11.2077 6.96058C11.1692 6.98846 11.1481 7.06731 11.1779 7.11058L11.6884 7.83173C10.8836 8.20481 10.3173 8.925 10.2461 9.75481H15.7154C15.6442 8.925 15.0779 8.20577 14.2731 7.83173L14.7836 7.11058C14.8134 7.06731 14.8231 6.9875 14.7836 6.96058C14.7442 6.93365 14.6644 6.94712 14.6336 6.99038L14.1231 7.77212C13.7588 7.63096 13.3714 7.55921 12.9808 7.56058C12.5901 7.55861 12.2025 7.63038 11.8384 7.77212L11.3288 6.99038C11.2971 6.94712 11.2471 6.93462 11.2077 6.96058ZM11.8384 8.37212C12.0058 8.37212 12.1394 8.50577 12.1394 8.67308C12.1394 8.84038 12.0048 9.00385 11.8384 9.00385C11.7525 8.99858 11.6715 8.96202 11.6108 8.90107C11.55 8.84011 11.5137 8.759 11.5086 8.67308C11.5086 8.50673 11.6711 8.37212 11.8384 8.37212ZM14.1827 8.37212C14.2223 8.37173 14.2616 8.37925 14.2983 8.39424C14.335 8.40923 14.3683 8.43138 14.3963 8.45941C14.4244 8.48743 14.4465 8.52076 14.4615 8.55745C14.4765 8.59414 14.484 8.63345 14.4836 8.67308C14.4836 8.84038 14.35 9.00385 14.1827 9.00385C14.0163 9.00385 13.8817 8.84135 13.8817 8.67308C13.8817 8.50673 14.0154 8.37212 14.1827 8.37212ZM9.25479 10.1154C8.91537 10.1154 8.65383 10.4019 8.65383 10.7462V13.1798C8.65383 13.525 8.91537 13.8115 9.25479 13.8115C9.42146 13.8095 9.58075 13.7424 9.69861 13.6246C9.81647 13.5067 9.88357 13.3474 9.88556 13.1808V10.7462C9.88332 10.5796 9.81615 10.4204 9.69834 10.3026C9.58053 10.1848 9.42139 10.1176 9.25479 10.1154ZM16.6769 10.1154C16.3365 10.1154 16.0759 10.4019 16.0759 10.7462V13.1798C16.0759 13.525 16.3356 13.8115 16.6769 13.8115C16.8435 13.8093 17.0026 13.7421 17.1205 13.6243C17.2383 13.5065 17.3054 13.3474 17.3077 13.1808V10.7462C17.3054 10.5796 17.2383 10.4204 17.1205 10.3026C17.0026 10.1848 16.8435 10.1176 16.6769 10.1154ZM10.2461 10.1452V14.5923C10.2461 14.7198 10.2968 14.8421 10.387 14.9323C10.4771 15.0224 10.5994 15.0731 10.7269 15.0731H11.2683V16.4558C11.2683 16.8 11.5586 17.0567 11.899 17.0567C11.9784 17.0584 12.0573 17.0441 12.131 17.0145C12.2047 16.9849 12.2716 16.9407 12.3278 16.8845C12.3839 16.8284 12.4281 16.7614 12.4577 16.6877C12.4873 16.6141 12.5017 16.5352 12.5 16.4558V15.0731H13.4615V16.4558C13.4615 16.8 13.7529 17.0567 14.0923 17.0567C14.1717 17.0584 14.2506 17.0441 14.3243 17.0145C14.398 16.9849 14.4649 16.9407 14.521 16.8845C14.5772 16.8284 14.6214 16.7614 14.651 16.6877C14.6806 16.6141 14.695 16.5352 14.6933 16.4558V15.0731H15.2644C15.3919 15.0731 15.5142 15.0224 15.6044 14.9323C15.6945 14.8421 15.7452 14.7198 15.7452 14.5923V10.1452H10.2461ZM8.17306 22.6154H10.0961C10.2236 22.6154 10.3459 22.666 10.4361 22.7562C10.5263 22.8464 10.5769 22.9686 10.5769 23.0962C10.5769 23.2237 10.5263 23.3459 10.4361 23.4361C10.3459 23.5263 10.2236 23.5769 10.0961 23.5769H8.17306C8.04555 23.5769 7.92327 23.5263 7.83311 23.4361C7.74295 23.3459 7.69229 23.2237 7.69229 23.0962C7.69229 22.9686 7.74295 22.8464 7.83311 22.7562C7.92327 22.666 8.04555 22.6154 8.17306 22.6154ZM12.0192 22.6154H13.9423C14.0698 22.6154 14.1921 22.666 14.2822 22.7562C14.3724 22.8464 14.4231 22.9686 14.4231 23.0962V24.0577C14.4231 24.1852 14.3724 24.3075 14.2822 24.3976C14.1921 24.4878 14.0698 24.5385 13.9423 24.5385H12.0192C11.8917 24.5385 11.7694 24.4878 11.6793 24.3976C11.5891 24.3075 11.5384 24.1852 11.5384 24.0577V23.0962C11.5384 22.9686 11.5891 22.8464 11.6793 22.7562C11.7694 22.666 11.8917 22.6154 12.0192 22.6154ZM15.8654 22.6154H17.7884C17.916 22.6154 18.0382 22.666 18.1284 22.7562C18.2186 22.8464 18.2692 22.9686 18.2692 23.0962C18.2692 23.2237 18.2186 23.3459 18.1284 23.4361C18.0382 23.5263 17.916 23.5769 17.7884 23.5769H15.8654C15.7379 23.5769 15.6156 23.5263 15.5254 23.4361C15.4353 23.3459 15.3846 23.2237 15.3846 23.0962C15.3846 22.9686 15.4353 22.8464 15.5254 22.7562C15.6156 22.666 15.7379 22.6154 15.8654 22.6154Z" fill="white"/>
</svg>
