<svg width="25" height="25" viewBox="0 0 25 25" fill="none" xmlns="http://www.w3.org/2000/svg">
<g clip-path="url(#clip0_106_351)">
<path fill-rule="evenodd" clip-rule="evenodd" d="M12.5 14.7104L18.024 20.2344C18.3171 20.5275 18.7146 20.6922 19.1292 20.6922C19.5437 20.6922 19.9413 20.5275 20.2344 20.2344C20.5275 19.9412 20.6922 19.5437 20.6922 19.1292C20.6922 18.7146 20.5275 18.3171 20.2344 18.0239L14.7083 12.5L20.2333 6.97603C20.3784 6.8309 20.4935 6.65861 20.572 6.469C20.6504 6.27939 20.6908 6.07619 20.6908 5.87098C20.6907 5.66577 20.6502 5.46258 20.5717 5.27301C20.4931 5.08344 20.378 4.91121 20.2328 4.76614C20.0877 4.62107 19.9154 4.50601 19.7258 4.42752C19.5362 4.34904 19.333 4.30867 19.1278 4.30871C18.9226 4.30876 18.7194 4.34923 18.5298 4.4278C18.3402 4.50638 18.168 4.62152 18.0229 4.76666L12.5 10.2906L6.97605 4.76666C6.83198 4.61736 6.65962 4.49824 6.46903 4.41627C6.27844 4.33429 6.07343 4.29109 5.86596 4.28919C5.6585 4.28729 5.45273 4.32673 5.26067 4.4052C5.06861 4.48367 4.8941 4.59961 4.74732 4.74625C4.60054 4.89289 4.48444 5.06729 4.40579 5.25927C4.32713 5.45126 4.2875 5.65699 4.28921 5.86446C4.29091 6.07193 4.33392 6.27698 4.41571 6.46765C4.49751 6.65832 4.61646 6.83079 4.76563 6.97499L10.2917 12.5L4.76667 18.025C4.61751 18.1692 4.49855 18.3417 4.41676 18.5323C4.33496 18.723 4.29195 18.9281 4.29025 19.1355C4.28854 19.343 4.32818 19.5487 4.40683 19.7407C4.48548 19.9327 4.60159 20.1071 4.74836 20.2537C4.89514 20.4004 5.06965 20.5163 5.26171 20.5948C5.45377 20.6733 5.65954 20.7127 5.867 20.7108C6.07447 20.7089 6.27948 20.6657 6.47007 20.5837C6.66066 20.5017 6.83302 20.3826 6.97709 20.2333L12.5 14.7104Z" fill="#F8F8F8"/>
</g>
<defs>
<clipPath id="clip0_106_351">
<rect width="25" height="25" fill="white"/>
</clipPath>
</defs>
</svg>
