<svg width="25" height="26" viewBox="0 0 25 26" fill="none" xmlns="http://www.w3.org/2000/svg">
<path d="M16.6667 2.58334C13.7917 2.58334 11.4584 4.91668 11.4584 7.79168C11.4584 10.6667 13.7917 13 16.6667 13C19.5417 13 21.875 10.6667 21.875 7.79168C21.875 4.91668 19.5417 2.58334 16.6667 2.58334ZM16.6667 10.9167C14.9375 10.9167 13.5417 9.52084 13.5417 7.79168C13.5417 6.06251 14.9375 4.66668 16.6667 4.66668C18.3959 4.66668 19.7917 6.06251 19.7917 7.79168C19.7917 9.52084 18.3959 10.9167 16.6667 10.9167ZM19.7917 17.1667H17.7084C17.7084 15.9167 16.9271 14.7917 15.7604 14.3542L9.34377 11.9583H1.04169V23.4167H7.29169V21.9167L14.5834 23.9375L22.9167 21.3333V20.2917C22.9167 18.5625 21.5209 17.1667 19.7917 17.1667ZM5.20835 21.3333H3.12502V14.0417H5.20835V21.3333ZM14.5521 21.7604L7.29169 19.7708V14.0417H8.96877L15.0313 16.3021C15.3854 16.4375 15.625 16.7813 15.625 17.1667C15.625 17.1667 13.5417 17.1146 13.2292 17.0104L10.75 16.1875L10.0938 18.1667L12.5729 18.9896C13.1042 19.1667 13.6563 19.25 14.2188 19.25H19.7917C20.1979 19.25 20.5625 19.5 20.7292 19.8438L14.5521 21.7604Z" fill="white"/>
</svg>
