<svg width="25" height="26" viewBox="0 0 25 26" fill="none" xmlns="http://www.w3.org/2000/svg">
<g clip-path="url(#clip0_11_123)">
<path d="M20.8333 19.25C21.9792 19.25 22.9062 18.3125 22.9062 17.1667L22.9167 6.74999C22.9167 5.60416 21.9792 4.66666 20.8333 4.66666H4.16667C3.02083 4.66666 2.08333 5.60416 2.08333 6.74999V17.1667C2.08333 18.3125 3.02083 19.25 4.16667 19.25H0V21.3333H25V19.25H20.8333ZM4.16667 6.74999H20.8333V17.1667H4.16667V6.74999Z" fill="white"/>
<path d="M12.292 13.1368L14.3843 15.2291C14.5637 15.4028 14.8043 15.499 15.054 15.497C15.3038 15.4949 15.5427 15.3948 15.7193 15.2182C15.8959 15.0416 15.996 14.8027 15.998 14.553C16 14.3032 15.9038 14.0627 15.7301 13.8833L13.621 11.7741M12.292 13.1368L13.1878 12.0494C13.3016 11.9115 13.4534 11.8247 13.6213 11.7745C13.8187 11.7156 14.0387 11.707 14.2469 11.7242C14.5274 11.7483 14.8094 11.6986 15.0649 11.5801C15.3203 11.4615 15.5403 11.2782 15.7031 11.0484C15.8658 10.8185 15.9656 10.5501 15.9926 10.2698C16.0195 9.98947 15.9727 9.70697 15.8568 9.45032L14.6811 10.6264C14.4844 10.5809 14.3044 10.4811 14.1617 10.3383C14.0189 10.1956 13.9191 10.0156 13.8736 9.8189L15.0493 8.64319C14.7927 8.52726 14.5102 8.48046 14.2298 8.50742C13.9495 8.53439 13.6811 8.63419 13.4513 8.79692C13.2214 8.95965 13.0381 9.17966 12.9196 9.43511C12.801 9.69055 12.7513 9.97256 12.7754 10.2531C12.8081 10.6393 12.75 11.0657 12.451 11.3119L12.4144 11.3424M12.292 13.1368L10.6214 15.1655C10.5404 15.2642 10.4397 15.3449 10.3257 15.4023C10.2117 15.4597 10.0869 15.4926 9.95939 15.4989C9.83189 15.5052 9.70448 15.4847 9.58537 15.4387C9.46627 15.3928 9.3581 15.3224 9.26783 15.2322C9.17756 15.1419 9.1072 15.0337 9.06126 14.9146C9.01532 14.7955 8.99483 14.6681 9.00111 14.5406C9.00738 14.4131 9.04028 14.2883 9.0977 14.1743C9.15511 14.0603 9.23576 13.9596 9.33445 13.8786L11.7881 11.8581L10.3142 10.3841H9.80854L9.00105 9.03833L9.53938 8.5L10.8852 9.30749V9.81316L12.414 11.342L11.7878 11.8577M14.7881 14.287L13.846 13.3449M9.94025 14.5562H9.94312V14.559H9.94025V14.5562Z" stroke="white" stroke-width="0.3" stroke-linecap="round" stroke-linejoin="round"/>
</g>
<defs>
<clipPath id="clip0_11_123">
<rect width="25" height="25" fill="white" transform="translate(0 0.5)"/>
</clipPath>
</defs>
</svg>
