<svg width="95" height="26" viewBox="0 0 95 26" fill="none" xmlns="http://www.w3.org/2000/svg">
<g clip-path="url(#clip0_11_214)">
<path fill-rule="evenodd" clip-rule="evenodd" d="M88.5983 25.5C90.2559 25.5 91.8456 24.8415 93.0177 23.6694C94.1898 22.4973 94.8483 20.9076 94.8483 19.25V6.75C94.8483 5.0924 94.1898 3.50268 93.0177 2.33058C91.8456 1.15848 90.2559 0.5 88.5983 0.5H84.7179C84.4811 0.5 84.254 0.594069 84.0866 0.761512C83.9191 0.928955 83.825 1.15606 83.825 1.39286V24.6071C83.825 24.8439 83.9191 25.071 84.0866 25.2385C84.254 25.4059 84.4811 25.5 84.7179 25.5H88.5983ZM89.084 18.5143C89.8055 18.5143 90.4975 18.2277 91.0077 17.7175C91.5179 17.2073 91.8045 16.5153 91.8045 15.7937C91.8045 15.0722 91.5179 14.3802 91.0077 13.87C90.4975 13.3598 89.8055 13.0732 89.084 13.0732C88.3624 13.0732 87.6705 13.3598 87.1603 13.87C86.6501 14.3802 86.3634 15.0722 86.3634 15.7937C86.3634 16.5153 86.6501 17.2073 87.1603 17.7175C87.6705 18.2277 88.3624 18.5143 89.084 18.5143ZM76.3 0.5C74.6424 0.5 73.0527 1.15848 71.8806 2.33058C70.7085 3.50268 70.05 5.0924 70.05 6.75V19.25C70.05 20.9076 70.7085 22.4973 71.8806 23.6694C73.0527 24.8415 74.6424 25.5 76.3 25.5H80.1804C80.4172 25.5 80.6443 25.4059 80.8118 25.2385C80.9792 25.071 81.0733 24.8439 81.0733 24.6071V1.39286C81.0733 1.15606 80.9792 0.928955 80.8118 0.761512C80.6443 0.594069 80.4172 0.5 80.1804 0.5H76.3ZM75.8143 6.11964C75.0928 6.11964 74.4008 6.40627 73.8906 6.91647C73.3804 7.42667 73.0938 8.11865 73.0938 8.84018C73.0938 9.56171 73.3804 10.2537 73.8906 10.7639C74.4008 11.2741 75.0928 11.5607 75.8143 11.5607C76.5359 11.5607 77.2278 11.2741 77.738 10.7639C78.2482 10.2537 78.5349 9.56171 78.5349 8.84018C78.5349 8.11865 78.2482 7.42667 77.738 6.91647C77.2278 6.40627 76.5359 6.11964 75.8143 6.11964Z" fill="white"/>
</g>
<g clip-path="url(#clip1_11_214)">
<path d="M46.2533 25.4481C44.2729 25.2432 42.3701 24.5682 40.7033 23.4793C39.3001 22.5652 38.9829 22.1887 38.9829 21.4387C38.9829 19.9309 40.6423 17.2887 43.4814 14.2777C45.0923 12.5668 47.3392 10.5621 47.5814 10.6168C48.0533 10.7231 51.8283 14.4027 53.2408 16.134C55.4751 18.8731 56.5033 21.1168 55.9814 22.1168C55.5845 22.8762 53.122 24.3621 51.3142 24.9324C49.8236 25.4028 47.8658 25.6027 46.2533 25.4481ZM37.0876 19.8699C35.9204 18.0824 35.3314 16.3231 35.047 13.7762C34.9533 12.934 34.9876 12.4543 35.2611 10.7293C35.6017 8.57775 36.8267 6.08869 38.3001 4.55744C38.9267 3.90587 38.9829 3.89025 39.747 4.1465C40.6767 4.459 41.6689 5.14338 43.2048 6.534L44.1017 7.34494L43.6126 7.9465C41.3376 10.7387 38.9376 14.6965 38.0314 17.1449C37.5392 18.4762 37.3408 19.8121 37.5533 20.3684C37.6954 20.7434 37.5642 20.6028 37.0845 19.8699H37.0876ZM57.5579 20.1746C57.6736 19.6121 57.5283 18.5809 57.1861 17.5387C56.447 15.284 53.9751 11.0887 51.7048 8.23713L50.9908 7.33869L51.7626 6.62931C52.772 5.70275 53.4736 5.14806 54.2314 4.67619C54.8267 4.30588 55.6798 3.97619 56.0454 3.97619C56.272 3.97619 57.0673 4.80119 57.7095 5.70119C58.7302 7.15793 59.4441 8.80694 59.8079 10.5481C60.047 11.6856 60.0673 14.1199 59.8454 15.2543C59.6371 16.2703 59.3229 17.2616 58.9079 18.2121C58.6283 18.8262 57.9329 20.0184 57.6267 20.4059C57.4704 20.6059 57.4689 20.6043 57.5579 20.1746ZM46.4611 3.54963C45.4142 3.01838 43.7986 2.44806 42.9048 2.29494C42.5125 2.23494 42.1154 2.21244 41.7189 2.22775C40.9829 2.26525 41.0158 2.22775 42.197 1.66838C43.1231 1.22401 44.1017 0.898512 45.1095 0.699625C46.3595 0.435563 48.7126 0.434 49.9439 0.691813C51.272 0.973063 52.8392 1.55431 53.722 2.09806L53.9845 2.259L53.3829 2.22775C52.1861 2.16838 50.4454 2.64963 48.5736 3.56056C48.0095 3.83556 47.5173 4.05431 47.4814 4.04806C47.1358 3.89228 46.7966 3.72606 46.4611 3.54963Z" fill="white"/>
</g>
<g clip-path="url(#clip2_11_214)">
<path d="M9.35865 3.20626V21.4844L13.436 22.7977V7.46641C13.436 6.74532 13.754 6.26563 14.2665 6.43204C14.9258 6.62344 15.0563 7.28282 15.0563 8.00313V14.1227C17.6001 15.3641 19.6008 14.1188 19.6008 10.8391C19.6008 7.46641 18.429 5.96797 14.979 4.76797C13.6157 4.29922 11.0922 3.53047 9.36333 3.20547L9.35865 3.20626ZM14.2094 20.125L20.7688 17.7524C21.5126 17.4844 21.6274 17.1024 21.0251 16.9024C20.4149 16.7031 19.3196 16.7555 18.5665 17.0281L14.1883 18.5906V16.1039L14.436 16.0188C14.436 16.0188 15.6891 15.5805 17.4711 15.3758C19.2376 15.1891 21.4149 15.4078 23.136 16.0633C25.061 16.6906 25.2641 17.5977 24.7758 18.225C24.2915 18.8469 23.0876 19.3031 23.0876 19.3031L14.1883 22.5375V20.1445L14.2094 20.125ZM1.88443 19.8773C-0.0976043 19.3078 -0.422604 18.1398 0.475833 17.4555C1.31021 16.8492 2.72193 16.3617 2.72193 16.3617L8.57271 14.2656V16.6742L4.38208 18.2086C3.64536 18.4899 3.52349 18.868 4.13443 19.0672C4.74458 19.2711 5.83833 19.2266 6.57193 18.9453L8.5899 18.2086V20.3688C8.46802 20.3977 8.32505 20.4133 8.18286 20.4461C6.1649 20.7891 4.02427 20.65 1.89615 19.9461L1.88443 19.8773Z" fill="white"/>
</g>
<defs>
<clipPath id="clip0_11_214">
<rect width="25" height="25" fill="white" transform="translate(70 0.5)"/>
</clipPath>
<clipPath id="clip1_11_214">
<rect width="25" height="25" fill="white" transform="translate(35 0.5)"/>
</clipPath>
<clipPath id="clip2_11_214">
<rect width="25" height="25" fill="white" transform="translate(0 0.5)"/>
</clipPath>
</defs>
</svg>
