<svg width="25" height="25" viewBox="0 0 25 25" fill="none" xmlns="http://www.w3.org/2000/svg">
<rect width="25" height="25" fill="white"/>
<path d="M20.8333 18.7498H18.75V9.63525L12.5 13.5415L6.24998 9.63525V18.7498H4.16665V6.24984H5.41665L12.5 10.6769L19.5833 6.24984H20.8333M20.8333 4.1665H4.16665C3.0104 4.1665 2.08331 5.09359 2.08331 6.24984V18.7498C2.08331 19.3024 2.30281 19.8323 2.69351 20.223C3.08421 20.6137 3.61411 20.8332 4.16665 20.8332H20.8333C21.3858 20.8332 21.9158 20.6137 22.3065 20.223C22.6972 19.8323 22.9166 19.3024 22.9166 18.7498V6.24984C22.9166 5.6973 22.6972 5.1674 22.3065 4.7767C21.9158 4.386 21.3858 4.1665 20.8333 4.1665Z" fill="#6C757D"/>
</svg>
