<svg width="25" height="25" viewBox="0 0 25 25" fill="none" xmlns="http://www.w3.org/2000/svg">
<rect width="25" height="25" fill="white"/>
<path d="M13.5708 2.0835C14.7427 2.08662 15.3375 2.09287 15.851 2.10745L16.0531 2.11475C16.2864 2.12308 16.5166 2.1335 16.7948 2.146C17.9031 2.19808 18.6593 2.37308 19.3229 2.63037C20.0104 2.89495 20.5896 3.25329 21.1687 3.83141C21.6984 4.35214 22.1083 4.98203 22.3698 5.67725C22.6271 6.34079 22.8021 7.09704 22.8541 8.20641C22.8666 8.4835 22.8771 8.7137 22.8854 8.94808L22.8916 9.15016C22.9073 9.66266 22.9135 10.2575 22.9156 11.4293L22.9166 12.2064V13.571C22.9192 14.3308 22.9112 15.0906 22.8927 15.8502L22.8864 16.0522C22.8781 16.2866 22.8677 16.5168 22.8552 16.7939C22.8031 17.9033 22.626 18.6585 22.3698 19.3231C22.109 20.0187 21.6991 20.6487 21.1687 21.1689C20.6478 21.6984 20.018 22.1082 19.3229 22.37C18.6593 22.6272 17.9031 22.8022 16.7948 22.8543C16.5476 22.866 16.3004 22.8764 16.0531 22.8856L15.851 22.8918C15.3375 22.9064 14.7427 22.9137 13.5708 22.9158L12.7937 22.9168H11.4302C10.67 22.9195 9.90989 22.9115 9.14997 22.8929L8.94789 22.8866C8.70061 22.8773 8.45338 22.8665 8.20622 22.8543C7.09789 22.8022 6.34164 22.6272 5.67705 22.37C4.98192 22.1089 4.35228 21.699 3.83226 21.1689C3.3021 20.6484 2.89187 20.0185 2.63018 19.3231C2.37289 18.6595 2.19789 17.9033 2.1458 16.7939C2.1342 16.5467 2.12378 16.2995 2.11455 16.0522L2.10935 15.8502C2.09015 15.0906 2.08147 14.3308 2.0833 13.571V11.4293C2.0804 10.6695 2.08804 9.90974 2.10622 9.15016L2.11351 8.94808C2.12185 8.7137 2.13226 8.4835 2.14476 8.20641C2.19685 7.09704 2.37185 6.34183 2.62914 5.67725C2.89071 4.98131 3.30176 4.35123 3.8333 3.83141C4.35319 3.3017 4.98241 2.89182 5.67705 2.63037C6.34164 2.37308 7.09684 2.19808 8.20622 2.146C8.4833 2.1335 8.71455 2.12308 8.94789 2.11475L9.14997 2.1085C9.90955 2.08999 10.6693 2.082 11.4291 2.08454L13.5708 2.0835ZM12.5 7.29183C11.1186 7.29183 9.79387 7.84056 8.81712 8.81731C7.84037 9.79407 7.29164 11.1188 7.29164 12.5002C7.29164 13.8815 7.84037 15.2063 8.81712 16.183C9.79387 17.1598 11.1186 17.7085 12.5 17.7085C13.8813 17.7085 15.2061 17.1598 16.1828 16.183C17.1596 15.2063 17.7083 13.8815 17.7083 12.5002C17.7083 11.1188 17.1596 9.79407 16.1828 8.81731C15.2061 7.84056 13.8813 7.29183 12.5 7.29183ZM12.5 9.37516C12.9104 9.37509 13.3167 9.45586 13.6959 9.61284C14.0751 9.76982 14.4196 9.99995 14.7098 10.2901C15.0001 10.5802 15.2303 10.9247 15.3874 11.3038C15.5445 11.6829 15.6254 12.0893 15.6255 12.4996C15.6256 12.91 15.5448 13.3164 15.3878 13.6956C15.2308 14.0747 15.0007 14.4193 14.7106 14.7095C14.4204 14.9997 14.076 15.23 13.6969 15.3871C13.3177 15.5442 12.9114 15.6251 12.501 15.6252C11.6722 15.6252 10.8774 15.2959 10.2913 14.7099C9.70525 14.1238 9.37601 13.329 9.37601 12.5002C9.37601 11.6714 9.70525 10.8765 10.2913 10.2905C10.8774 9.7044 11.6722 9.37516 12.501 9.37516M17.9698 5.72933C17.6244 5.72933 17.2932 5.86651 17.0491 6.1107C16.8049 6.35489 16.6677 6.68608 16.6677 7.03141C16.6677 7.37675 16.8049 7.70794 17.0491 7.95212C17.2932 8.19631 17.6244 8.3335 17.9698 8.3335C18.3151 8.3335 18.6463 8.19631 18.8905 7.95212C19.1347 7.70794 19.2718 7.37675 19.2718 7.03141C19.2718 6.68608 19.1347 6.35489 18.8905 6.1107C18.6463 5.86651 18.3151 5.72933 17.9698 5.72933Z" fill="#6C757D"/>
</svg>
