<svg width="25" height="25" viewBox="0 0 25 25" fill="none" xmlns="http://www.w3.org/2000/svg">
<path d="M20.8333 18.2292C21.2346 18.2294 21.6204 18.3839 21.9108 18.6608C22.2012 18.9377 22.3739 19.3158 22.3932 19.7166C22.4125 20.1174 22.2768 20.5102 22.0144 20.8137C21.7519 21.1173 21.3827 21.3081 20.9833 21.3469L20.8333 21.3542H4.16663C3.76536 21.354 3.37955 21.1994 3.08914 20.9225C2.79873 20.6456 2.62599 20.2676 2.6067 19.8667C2.58742 19.4659 2.72308 19.0731 2.98556 18.7696C3.24804 18.4661 3.61723 18.2752 4.01663 18.2365L4.16663 18.2292H20.8333ZM20.8333 10.9375C21.2477 10.9375 21.6451 11.1021 21.9381 11.3951C22.2312 11.6882 22.3958 12.0856 22.3958 12.5C22.3958 12.9144 22.2312 13.3118 21.9381 13.6048C21.6451 13.8979 21.2477 14.0625 20.8333 14.0625H4.16663C3.75223 14.0625 3.3548 13.8979 3.06177 13.6048C2.76875 13.3118 2.60413 12.9144 2.60413 12.5C2.60413 12.0856 2.76875 11.6882 3.06177 11.3951C3.3548 11.1021 3.75223 10.9375 4.16663 10.9375H20.8333ZM20.8333 3.64583C21.2477 3.64583 21.6451 3.81045 21.9381 4.10347C22.2312 4.3965 22.3958 4.79393 22.3958 5.20833C22.3958 5.62273 22.2312 6.02016 21.9381 6.31318C21.6451 6.60621 21.2477 6.77083 20.8333 6.77083H4.16663C3.75223 6.77083 3.3548 6.60621 3.06177 6.31318C2.76875 6.02016 2.60413 5.62273 2.60413 5.20833C2.60413 4.79393 2.76875 4.3965 3.06177 4.10347C3.3548 3.81045 3.75223 3.64583 4.16663 3.64583H20.8333Z" fill="white"/>
</svg>
