<svg width="63" height="32" viewBox="0 0 63 32" fill="none" xmlns="http://www.w3.org/2000/svg">
<path d="M60.5 14.125C60.7486 14.1247 60.9868 14.0259 61.1626 13.8501C61.3384 13.6743 61.4372 13.4361 61.4375 13.1875V11.625H60.1875V12.875H53.3125C53.0639 12.8753 52.8257 12.9741 52.6499 13.1499C52.4741 13.3257 52.3753 13.5639 52.375 13.8125V15.375H51.1494C50.2316 15.376 49.3516 15.7411 48.7026 16.3901C48.0536 17.0391 47.6885 17.9191 47.6875 18.8369V25.0848C47.6875 28.0018 50.0607 30.375 52.9777 30.375H53.0223C55.9393 30.375 58.3125 28.0018 58.3125 25.0848V18.8369C58.3115 17.9191 57.9464 17.0391 57.2974 16.3901C56.6484 15.7411 55.7684 15.376 54.8506 15.375H53.625V14.125H60.5ZM48.9375 18.8369C48.9382 18.2505 49.1714 17.6883 49.5861 17.2736C50.0008 16.8589 50.563 16.6257 51.1494 16.625H52.375V20.0625H48.9375V18.8369ZM57.0625 25.0848C57.0613 26.156 56.6353 27.1829 55.8778 27.9403C55.1204 28.6978 54.0935 29.1238 53.0223 29.125H52.9777C51.9065 29.1238 50.8796 28.6978 50.1222 27.9403C49.3647 27.1829 48.9387 26.156 48.9375 25.0848V21.3125H57.0625V25.0848ZM54.8506 16.625C55.437 16.6257 55.9992 16.8589 56.4139 17.2736C56.8286 17.6883 57.0618 18.2505 57.0625 18.8369V20.0625H53.625V16.625H54.8506Z" fill="white"/>
<path d="M25.2083 21.875C24.6354 21.875 24.1451 21.6712 23.7375 21.2636C23.3299 20.8559 23.1257 20.3653 23.125 19.7917V15.625C23.125 15.0521 23.3292 14.5618 23.7375 14.1542C24.1458 13.7465 24.6361 13.5424 25.2083 13.5417H35.625V9.37501H37.7083V13.5417H39.7917C40.3646 13.5417 40.8552 13.7458 41.2635 14.1542C41.6719 14.5625 41.8757 15.0528 41.875 15.625V19.7917C41.875 20.3646 41.6712 20.8552 41.2635 21.2636C40.8559 21.6719 40.3653 21.8757 39.7917 21.875H25.2083ZM25.2083 19.7917H39.7917V15.625H25.2083V19.7917ZM27.2917 18.75C27.5868 18.75 27.8344 18.65 28.0344 18.45C28.2344 18.25 28.334 18.0028 28.3333 17.7083C28.3333 17.4132 28.2333 17.166 28.0333 16.9667C27.8333 16.7674 27.5861 16.6674 27.2917 16.6667C26.9965 16.6667 26.7493 16.7667 26.55 16.9667C26.3507 17.1667 26.2507 17.4139 26.25 17.7083C26.25 18.0035 26.35 18.2511 26.55 18.451C26.75 18.6511 26.9972 18.7507 27.2917 18.75ZM30.9375 18.75C31.2326 18.75 31.4802 18.65 31.6802 18.45C31.8802 18.25 31.9799 18.0028 31.9792 17.7083C31.9792 17.4132 31.8792 17.166 31.6792 16.9667C31.4792 16.7674 31.2319 16.6674 30.9375 16.6667C30.6424 16.6667 30.3951 16.7667 30.1958 16.9667C29.9965 17.1667 29.8965 17.4139 29.8958 17.7083C29.8958 18.0035 29.9958 18.2511 30.1958 18.451C30.3958 18.6511 30.6431 18.7507 30.9375 18.75ZM34.5833 18.75C34.8785 18.75 35.126 18.65 35.326 18.45C35.526 18.25 35.6257 18.0028 35.625 17.7083C35.625 17.4132 35.525 17.166 35.325 16.9667C35.125 16.7674 34.8778 16.6674 34.5833 16.6667C34.2882 16.6667 34.041 16.7667 33.8417 16.9667C33.6424 17.1667 33.5424 17.4139 33.5417 17.7083C33.5417 18.0035 33.6417 18.2511 33.8417 18.451C34.0417 18.6511 34.2889 18.7507 34.5833 18.75ZM34.8438 8.59376L33.3333 7.08334C33.7847 6.66668 34.2882 6.33682 34.8438 6.09376C35.3993 5.8507 36.0069 5.72918 36.6667 5.72918C37.3264 5.72918 37.934 5.8507 38.4896 6.09376C39.0451 6.33682 39.5486 6.66668 40 7.08334L38.4896 8.59376C38.2465 8.3507 37.9729 8.15973 37.6687 8.02084C37.3646 7.88195 37.0306 7.81251 36.6667 7.81251C36.3021 7.81251 35.9677 7.88195 35.6635 8.02084C35.3594 8.15973 35.0861 8.3507 34.8438 8.59376ZM32.2396 5.98959L30.7812 4.53126C31.5451 3.76737 32.4306 3.16841 33.4375 2.73439C34.4444 2.30036 35.5208 2.08334 36.6667 2.08334C37.8125 2.08334 38.8889 2.30036 39.8958 2.73439C40.9028 3.16841 41.7882 3.76737 42.5521 4.53126L41.0938 5.98959C40.5208 5.41668 39.8569 4.9698 39.1021 4.64897C38.3472 4.32814 37.5354 4.16737 36.6667 4.16668C35.7986 4.16668 34.9872 4.32744 34.2323 4.64897C33.4774 4.9705 32.8132 5.41737 32.2396 5.98959Z" fill="white"/>
<path d="M9.5 12.85C5.51667 13.1083 2.5 16.6 2.5 20.5917V28.6667H7.5V22H4.16667V20.575C4.16667 17.375 6.63333 14.5917 9.825 14.5C10.6057 14.4764 11.3831 14.6099 12.1112 14.8925C12.8393 15.1751 13.5033 15.6011 14.0636 16.1451C14.624 16.6892 15.0694 17.3403 15.3734 18.0597C15.6774 18.7791 15.8338 19.5523 15.8333 20.3333V22H12.5V28.6667H17.5V20.3333C17.5 16.025 13.8667 12.5667 9.5 12.85Z" fill="white"/>
</svg>
