<svg width="25" height="25" viewBox="0 0 25 25" fill="none" xmlns="http://www.w3.org/2000/svg">
<rect width="25" height="25" fill="white"/>
<path fill-rule="evenodd" clip-rule="evenodd" d="M12.5 2.0835C6.74685 2.0835 2.08331 6.74704 2.08331 12.5002C2.08331 14.4689 2.63019 16.3127 3.58123 17.8835L2.65206 21.0418C2.59871 21.2232 2.5952 21.4155 2.6419 21.5987C2.6886 21.7818 2.78378 21.949 2.91744 22.0827C3.0511 22.2164 3.21829 22.3115 3.40146 22.3582C3.58462 22.4049 3.77698 22.4014 3.95831 22.3481L7.11665 21.4189C8.74027 22.4013 10.6023 22.9194 12.5 22.9168C18.2531 22.9168 22.9166 18.2533 22.9166 12.5002C22.9166 6.74704 18.2531 2.0835 12.5 2.0835ZM10.1437 14.8575C12.251 16.9637 14.2625 17.2418 14.9729 17.2679C16.0531 17.3075 17.1052 16.4825 17.5146 15.5252C17.5662 15.4061 17.585 15.2753 17.5689 15.1465C17.5528 15.0177 17.5023 14.8955 17.4229 14.7929C16.8521 14.0637 16.0802 13.5397 15.326 13.0189C15.1686 12.91 14.9751 12.8664 14.7861 12.897C14.5971 12.9277 14.4274 13.0304 14.3125 13.1835L13.6875 14.1366C13.6546 14.1879 13.6034 14.2246 13.5444 14.2393C13.4853 14.254 13.4228 14.2456 13.3698 14.2158C12.9458 13.9731 12.3281 13.5606 11.8844 13.1168C11.4406 12.6731 11.0531 12.0835 10.8354 11.6866C10.8084 11.6362 10.8006 11.5777 10.8134 11.522C10.8263 11.4662 10.8589 11.417 10.9052 11.3835L11.8677 10.6689C12.005 10.5495 12.0937 10.3837 12.1167 10.2031C12.1398 10.0226 12.0956 9.83986 11.9927 9.68975C11.526 9.00641 10.9823 8.13766 10.1937 7.56162C10.092 7.48787 9.97275 7.44189 9.84783 7.42819C9.7229 7.41449 9.59656 7.43355 9.48123 7.4835C8.5229 7.89391 7.69373 8.946 7.73331 10.0283C7.75935 10.7387 8.03748 12.7502 10.1437 14.8575Z" fill="#6C757D"/>
</svg>
