<svg width="39" height="37" viewBox="0 0 39 37" fill="none" xmlns="http://www.w3.org/2000/svg">
<path fill-rule="evenodd" clip-rule="evenodd" d="M26.1638 35.8974C33.6057 33.299 38.9152 26.4999 38.9152 18.5216C38.9152 18.3269 38.912 18.1329 38.9058 17.9397H20.7794V36.9838C21.8668 36.9145 22.9298 36.7601 23.961 36.5277V23.0758C23.3867 22.7143 23.0064 22.0842 23.0064 21.3674C23.0064 20.2456 23.9378 19.3362 25.0868 19.3362C26.2358 19.3362 27.1672 20.2456 27.1672 21.3674C27.1672 22.1043 26.7652 22.7496 26.1638 23.1056V28.9079V33.0865V35.0452V35.8974ZM18.5766 37.0072V17.9397H18.5766V15.8448L18.5766 15.8448H20.7794L38.7131 15.8448C38.5548 14.8057 38.3057 13.7946 37.9737 12.819H22.0197C21.6543 13.388 20.9953 13.7678 20.2429 13.7678C19.0939 13.7678 18.1625 12.882 18.1625 11.7894C18.1625 10.6967 19.0939 9.81093 20.2429 9.81093C20.9794 9.81093 21.6266 10.175 21.9963 10.7241H28.4626H33.3698H35.67H37.0732L37.1329 10.7953L37.157 10.8241C36.6667 9.80611 36.0821 8.83771 35.4139 7.92904L3.67088 7.70206C2.95399 8.64643 2.32849 9.6577 1.80671 10.7241H15.8843V12.819H15.8677V36.7116C16.7511 36.8683 17.6556 36.9682 18.5766 37.0072ZM5.29162 5.8362H33.6236C30.0752 2.25377 25.041 0.0172424 19.4576 0.0172424C13.8741 0.0172424 8.83998 2.25377 5.29162 5.8362ZM13.6649 36.192V12.819H0.941498C0.615681 13.7765 0.3697 14.7681 0.211019 15.7868L0.236169 15.7345L0.270146 15.6637L1.05235 15.6713L2.33466 15.6838L5.07025 15.7104L8.21066 15.7409C8.55794 15.1266 9.23687 14.7064 10.0219 14.6995C11.1702 14.6893 12.1107 15.5673 12.1225 16.6604C12.1342 17.7535 11.2129 18.6479 10.0646 18.6581C9.36166 18.6643 8.73664 18.3378 8.35482 17.8328L0.0165331 17.7517C0.00554679 18.007 0 18.2637 0 18.5216C0 26.8227 5.74775 33.8472 13.6649 36.192Z" fill="black"/>
<rect x="24.2057" y="20.5" width="1.71325" height="1.62931" rx="0.814655" fill="black"/>
<rect x="19.3108" y="10.9569" width="1.71325" height="1.62931" rx="0.814655" fill="black"/>
<rect x="9.276" y="15.8448" width="1.71325" height="1.62931" rx="0.814655" fill="black"/>
</svg>
