<svg width="243" height="37" viewBox="0 0 243 37" fill="none" xmlns="http://www.w3.org/2000/svg">
<path fill-rule="evenodd" clip-rule="evenodd" d="M26.1638 35.8802C33.6057 33.2817 38.9152 26.4827 38.9152 18.5043C38.9152 18.3096 38.912 18.1156 38.9058 17.9224H20.7794V36.9666C21.8668 36.8972 22.9298 36.7429 23.961 36.5105V23.0586C23.3867 22.697 23.0064 22.067 23.0064 21.3502C23.0064 20.2284 23.9378 19.319 25.0868 19.319C26.2358 19.319 27.1672 20.2284 27.1672 21.3502C27.1672 22.0871 26.7652 22.7323 26.1638 23.0884V28.8906V33.0693V35.028V35.8802ZM18.5766 36.99V17.9224H18.5766V15.8276L18.5766 15.8276H20.7794L38.7131 15.8276C38.5548 14.7885 38.3057 13.7774 37.9737 12.8017H22.0197C21.6543 13.3708 20.9953 13.7506 20.2429 13.7506C19.0939 13.7506 18.1625 12.8648 18.1625 11.7721C18.1625 10.6795 19.0939 9.79368 20.2429 9.79368C20.9794 9.79368 21.6266 10.1577 21.9963 10.7069H28.4626H33.3698H35.67H37.0732L37.1329 10.7781L37.157 10.8069C36.6667 9.78887 36.0821 8.82047 35.4139 7.91179L3.67088 7.68482C2.95399 8.62919 2.32849 9.64045 1.80671 10.7069H15.8843V12.8017H15.8677V36.6943C16.7511 36.851 17.6556 36.951 18.5766 36.99ZM5.29162 5.81896H33.6236C30.0752 2.23653 25.041 0 19.4576 0C13.8741 0 8.83998 2.23653 5.29162 5.81896ZM13.6649 36.1748V12.8017H0.941498C0.615681 13.7592 0.3697 14.7509 0.211019 15.7696L0.236169 15.7172L0.270146 15.6465L1.05235 15.6541L2.33466 15.6666L5.07025 15.6932L8.21066 15.7237C8.55794 15.1093 9.23687 14.6892 10.0219 14.6822C11.1702 14.6721 12.1107 15.55 12.1225 16.6432C12.1342 17.7363 11.2129 18.6307 10.0646 18.6408C9.36166 18.647 8.73664 18.3205 8.35482 17.8156L0.0165331 17.7345C0.00554679 17.9898 0 18.2464 0 18.5043C0 26.8055 5.74775 33.83 13.6649 36.1748Z" fill="black"/>
<rect x="24.2057" y="20.4828" width="1.71325" height="1.62931" rx="0.814655" fill="black"/>
<rect x="19.3108" y="10.9397" width="1.71325" height="1.62931" rx="0.814655" fill="black"/>
<rect x="9.276" y="15.8276" width="1.71325" height="1.62931" rx="0.814655" fill="black"/>
<path d="M55.3695 25V14.5468H48.2261V10.818H66.5768V14.5468H59.4125V25H55.3695ZM71.7558 25C70.2336 25 69.1163 24.6229 68.4041 23.8688C67.6918 23.1147 67.3357 21.9555 67.3357 20.3914V15.4266C67.3357 13.8625 67.6918 12.7034 68.4041 11.9492C69.1163 11.1951 70.2336 10.818 71.7558 10.818H81.8319C83.3542 10.818 84.4714 11.1951 85.1836 11.9492C85.8959 12.7034 86.252 13.8625 86.252 15.4266V20.3914C86.252 21.9555 85.8959 23.1147 85.1836 23.8688C84.4714 24.6229 83.3542 25 81.8319 25H71.7558ZM82.188 15.8456C82.188 14.9797 81.7761 14.5468 80.9521 14.5468H72.6356C71.8256 14.5468 71.4206 14.9797 71.4206 15.8456V19.9724C71.4206 20.8243 71.8256 21.2503 72.6356 21.2503H80.9521C81.7761 21.2503 82.188 20.8243 82.188 19.9724V15.8456ZM92.0615 25C90.5533 25 89.443 24.6229 88.7308 23.8688C88.0185 23.1007 87.6624 21.9416 87.6624 20.3914V10.818H91.7683V19.9724C91.7683 20.8243 92.1663 21.2503 92.9623 21.2503H102.054V10.818H106.076V25H92.0615ZM111.955 25C110.433 25 109.316 24.6229 108.603 23.8688C107.891 23.1147 107.535 21.9555 107.535 20.3914V15.4266C107.535 13.8625 107.891 12.7034 108.603 11.9492C109.316 11.1951 110.433 10.818 111.955 10.818H125.153V14.5468H112.835C112.025 14.5468 111.62 14.9797 111.62 15.8456V19.9724C111.62 20.8243 112.025 21.2503 112.835 21.2503H125.153V25H111.955ZM140.714 25V19.4906H130.7V25H126.636V10.818H130.7V16.0132H140.714V10.818H144.778V25H140.714ZM157.746 21.7111V25H153.682V10.818H168.785C170.014 10.818 170.873 11.0903 171.362 11.635C171.865 12.1797 172.116 12.9757 172.116 14.0231V18.2337C172.116 19.4627 171.865 20.3495 171.362 20.8941C170.873 21.4388 170.014 21.7111 168.785 21.7111H157.746ZM168.073 15.0077C168.073 14.463 167.808 14.1907 167.277 14.1907H157.746V18.5479H167.277C167.808 18.5479 168.073 18.2616 168.073 17.6891V15.0077ZM188.523 25C188.411 24.9162 188.32 24.8045 188.25 24.6648C188.181 24.5252 188.146 24.3297 188.146 24.0783V21.2922C188.146 20.9709 188.062 20.7475 187.894 20.6218C187.727 20.4822 187.482 20.4123 187.161 20.4123H177.232V25H173.168V10.818H188.628C189.857 10.818 190.722 11.0903 191.225 11.635C191.728 12.1797 191.979 12.9757 191.979 14.0231V15.9084C191.979 16.495 191.923 16.9628 191.812 17.312C191.7 17.6472 191.553 17.9125 191.372 18.108C191.204 18.2896 191.009 18.4222 190.785 18.506C190.562 18.5759 190.345 18.6317 190.136 18.6736C190.345 18.7016 190.569 18.7574 190.806 18.8412C191.044 18.911 191.267 19.0437 191.477 19.2392C191.686 19.4347 191.854 19.7001 191.979 20.0353C192.119 20.3704 192.189 20.8034 192.189 21.3341V24.0783C192.189 24.3297 192.224 24.5252 192.293 24.6648C192.363 24.8045 192.454 24.9162 192.566 25H188.523ZM187.936 15.0077C187.936 14.463 187.671 14.1907 187.14 14.1907H177.232V17.3748H187.056C187.336 17.3748 187.552 17.312 187.706 17.1863C187.859 17.0606 187.936 16.8511 187.936 16.5578V15.0077ZM193.472 25V10.818H197.536V25H193.472ZM218.589 25V15.8456C218.589 14.9797 218.184 14.5468 217.374 14.5468H212.912V25H208.848V14.5468H203.213V25H199.149V10.818H218.233C219.755 10.818 220.873 11.2021 221.585 11.9702C222.297 12.7243 222.653 13.8765 222.653 15.4266V25H218.589ZM228.452 25C226.93 25 225.813 24.6229 225.1 23.8688C224.388 23.1147 224.032 21.9555 224.032 20.3914V14.0231C224.032 12.9897 224.283 12.2006 224.786 11.6559C225.289 11.0973 226.162 10.818 227.405 10.818H239.597C240.826 10.818 241.691 11.0903 242.194 11.635C242.697 12.1797 242.948 12.9757 242.948 14.0231V15.9713C242.948 17.0187 242.697 17.8147 242.194 18.3594C241.691 18.9041 240.826 19.1764 239.597 19.1764H228.117V19.9724C228.117 20.8243 228.522 21.2503 229.332 21.2503H242.592V25H228.452ZM238.905 15.0077C238.905 14.463 238.64 14.1907 238.109 14.1907H228.892C228.375 14.1907 228.117 14.463 228.117 15.0077V16.6207H238.109C238.64 16.6207 238.905 16.3484 238.905 15.8037V15.0077Z" fill="black"/>
</svg>
