<svg width="244" height="38" viewBox="0 0 244 38" fill="none" xmlns="http://www.w3.org/2000/svg">
<path fill-rule="evenodd" clip-rule="evenodd" d="M26.1638 35.8888C33.6057 33.2904 38.9152 26.4913 38.9152 18.5129C38.9152 18.3183 38.912 18.1243 38.9058 17.931H20.7794V36.9752C21.8668 36.9058 22.9298 36.7515 23.961 36.5191V23.0672C23.3867 22.7057 23.0064 22.0756 23.0064 21.3588C23.0064 20.237 23.9378 19.3276 25.0868 19.3276C26.2358 19.3276 27.1672 20.237 27.1672 21.3588C27.1672 22.0957 26.7652 22.741 26.1638 23.097V28.8993V33.0779V35.0366V35.8888ZM18.5766 36.9986V17.931H18.5766V15.8362L18.5766 15.8362H20.7794L38.7131 15.8362C38.5548 14.7971 38.3057 13.786 37.9737 12.8103H22.0197C21.6543 13.3794 20.9953 13.7592 20.2429 13.7592C19.0939 13.7592 18.1625 12.8734 18.1625 11.7808C18.1625 10.6881 19.0939 9.80231 20.2429 9.80231C20.9794 9.80231 21.6266 10.1663 21.9963 10.7155H28.4626H33.3698H35.67H37.0732L37.1329 10.7867L37.157 10.8155C36.6667 9.79749 36.0821 8.82909 35.4139 7.92041L3.67088 7.69344C2.95399 8.63781 2.32849 9.64908 1.80671 10.7155H15.8843V12.8103H15.8677V36.7029C16.7511 36.8596 17.6556 36.9596 18.5766 36.9986ZM5.29162 5.82758H33.6236C30.0752 2.24515 25.041 0.00862122 19.4576 0.00862122C13.8741 0.00862122 8.83998 2.24515 5.29162 5.82758ZM13.6649 36.1834V12.8103H0.941498C0.615681 13.7678 0.3697 14.7595 0.211019 15.7782L0.236169 15.7258L0.270146 15.6551L1.05235 15.6627L2.33466 15.6752L5.07025 15.7018L8.21066 15.7323C8.55794 15.1179 9.23687 14.6978 10.0219 14.6909C11.1702 14.6807 12.1107 15.5586 12.1225 16.6518C12.1342 17.7449 11.2129 18.6393 10.0646 18.6494C9.36166 18.6557 8.73664 18.3291 8.35482 17.8242L0.0165331 17.7431C0.00554679 17.9984 0 18.2551 0 18.5129C0 26.8141 5.74775 33.8386 13.6649 36.1834Z" fill="white"/>
<rect x="24.2057" y="20.4914" width="1.71325" height="1.62931" rx="0.814655" fill="white"/>
<rect x="19.3108" y="10.9483" width="1.71325" height="1.62931" rx="0.814655" fill="white"/>
<rect x="9.276" y="15.8362" width="1.71325" height="1.62931" rx="0.814655" fill="white"/>
<path d="M55.3695 18.4115V7.95832H48.2261V4.22953H66.5768V7.95832H59.4125V18.4115H55.3695ZM71.7558 18.4115C70.2336 18.4115 69.1163 18.0344 68.4041 17.2803C67.6918 16.5262 67.3357 15.367 67.3357 13.8029V8.83815C67.3357 7.27401 67.6918 6.11488 68.4041 5.36074C69.1163 4.6066 70.2336 4.22953 71.7558 4.22953H81.8319C83.3542 4.22953 84.4714 4.6066 85.1836 5.36074C85.8959 6.11488 86.252 7.27401 86.252 8.83815V13.8029C86.252 15.367 85.8959 16.5262 85.1836 17.2803C84.4714 18.0344 83.3542 18.4115 81.8319 18.4115H71.7558ZM82.188 9.25712C82.188 8.39126 81.7761 7.95832 80.9521 7.95832H72.6356C71.8256 7.95832 71.4206 8.39126 71.4206 9.25712V13.3839C71.4206 14.2358 71.8256 14.6618 72.6356 14.6618H80.9521C81.7761 14.6618 82.188 14.2358 82.188 13.3839V9.25712ZM92.0615 18.4115C90.5533 18.4115 89.443 18.0344 88.7308 17.2803C88.0185 16.5122 87.6624 15.3531 87.6624 13.8029V4.22953H91.7683V13.3839C91.7683 14.2358 92.1663 14.6618 92.9623 14.6618H102.054V4.22953H106.076V18.4115H92.0615ZM111.955 18.4115C110.433 18.4115 109.316 18.0344 108.603 17.2803C107.891 16.5262 107.535 15.367 107.535 13.8029V8.83815C107.535 7.27401 107.891 6.11488 108.603 5.36074C109.316 4.6066 110.433 4.22953 111.955 4.22953H125.153V7.95832H112.835C112.025 7.95832 111.62 8.39126 111.62 9.25712V13.3839C111.62 14.2358 112.025 14.6618 112.835 14.6618H125.153V18.4115H111.955ZM140.714 18.4115V12.9021H130.7V18.4115H126.636V4.22953H130.7V9.4247H140.714V4.22953H144.778V18.4115H140.714ZM157.746 15.1226V18.4115H153.682V4.22953H168.785C170.014 4.22953 170.873 4.50186 171.362 5.04651C171.865 5.59117 172.116 6.3872 172.116 7.43462V11.6452C172.116 12.8742 171.865 13.761 171.362 14.3057C170.873 14.8503 170.014 15.1226 168.785 15.1226H157.746ZM168.073 8.41919C168.073 7.87453 167.808 7.6022 167.277 7.6022H157.746V11.9594H167.277C167.808 11.9594 168.073 11.6732 168.073 11.1006V8.41919ZM188.523 18.4115C188.411 18.3277 188.32 18.216 188.25 18.0763C188.181 17.9367 188.146 17.7412 188.146 17.4898V14.7037C188.146 14.3825 188.062 14.159 187.894 14.0333C187.727 13.8937 187.482 13.8238 187.161 13.8238H177.232V18.4115H173.168V4.22953H188.628C189.857 4.22953 190.722 4.50186 191.225 5.04651C191.728 5.59117 191.979 6.3872 191.979 7.43462V9.31996C191.979 9.90651 191.923 10.3744 191.812 10.7235C191.7 11.0587 191.553 11.324 191.372 11.5195C191.204 11.7011 191.009 11.8338 190.785 11.9175C190.562 11.9874 190.345 12.0432 190.136 12.0851C190.345 12.1131 190.569 12.1689 190.806 12.2527C191.044 12.3225 191.267 12.4552 191.477 12.6507C191.686 12.8463 191.854 13.1116 191.979 13.4468C192.119 13.7819 192.189 14.2149 192.189 14.7456V17.4898C192.189 17.7412 192.224 17.9367 192.293 18.0763C192.363 18.216 192.454 18.3277 192.566 18.4115H188.523ZM187.936 8.41919C187.936 7.87453 187.671 7.6022 187.14 7.6022H177.232V10.7863H187.056C187.336 10.7863 187.552 10.7235 187.706 10.5978C187.859 10.4721 187.936 10.2626 187.936 9.96936V8.41919ZM193.472 18.4115V4.22953H197.536V18.4115H193.472ZM218.589 18.4115V9.25712C218.589 8.39126 218.184 7.95832 217.374 7.95832H212.912V18.4115H208.848V7.95832H203.213V18.4115H199.149V4.22953H218.233C219.755 4.22953 220.873 4.61358 221.585 5.38169C222.297 6.13582 222.653 7.28798 222.653 8.83815V18.4115H218.589ZM228.452 18.4115C226.93 18.4115 225.813 18.0344 225.1 17.2803C224.388 16.5262 224.032 15.367 224.032 13.8029V7.43462C224.032 6.40117 224.283 5.61212 224.786 5.06746C225.289 4.50884 226.162 4.22953 227.405 4.22953H239.597C240.826 4.22953 241.691 4.50186 242.194 5.04651C242.697 5.59117 242.948 6.3872 242.948 7.43462V9.38281C242.948 10.4302 242.697 11.2263 242.194 11.7709C241.691 12.3156 240.826 12.5879 239.597 12.5879H228.117V13.3839C228.117 14.2358 228.522 14.6618 229.332 14.6618H242.592V18.4115H228.452ZM238.905 8.41919C238.905 7.87453 238.64 7.6022 238.109 7.6022H228.892C228.375 7.6022 228.117 7.87453 228.117 8.41919V10.0322H238.109C238.64 10.0322 238.905 9.75988 238.905 9.21522V8.41919Z" fill="white"/>
<path d="M50.2616 33.7305C49.5851 33.7305 49.0885 33.5629 48.772 33.2277C48.4554 32.8926 48.2971 32.3774 48.2971 31.6822V29.4757C48.2971 28.7805 48.4554 28.2653 48.772 27.9301C49.0885 27.595 49.5851 27.4274 50.2616 27.4274H56.1271V29.0846H50.6526C50.2926 29.0846 50.1126 29.277 50.1126 29.6619V31.496C50.1126 31.8746 50.2926 32.0639 50.6526 32.0639H56.1271V33.7305H50.2616ZM59.4214 33.7305C58.7448 33.7305 58.2483 33.5629 57.9317 33.2277C57.6152 32.8926 57.4569 32.3774 57.4569 31.6822V28.8519C57.4569 28.3926 57.5686 28.0419 57.7921 27.7998C58.0155 27.5515 58.4035 27.4274 58.9559 27.4274H64.3745C64.9207 27.4274 65.3055 27.5484 65.529 27.7905C65.7524 28.0326 65.8642 28.3864 65.8642 28.8519V29.7177C65.8642 30.1832 65.7524 30.537 65.529 30.7791C65.3055 31.0212 64.9207 31.1422 64.3745 31.1422H59.2724V31.496C59.2724 31.8746 59.4524 32.0639 59.8124 32.0639H65.7059V33.7305H59.4214ZM64.0673 29.2895C64.0673 29.0474 63.9493 28.9264 63.7135 28.9264H59.6169C59.3873 28.9264 59.2724 29.0474 59.2724 29.2895V30.0064H63.7135C63.9493 30.0064 64.0673 29.8853 64.0673 29.6432V29.2895ZM69.2274 33.7305C68.5508 33.7305 68.0543 33.5629 67.7377 33.2277C67.4274 32.8926 67.2722 32.3774 67.2722 31.6822V27.4274H69.0784V31.496C69.0784 31.8746 69.2584 32.0639 69.6184 32.0639H74.3294V33.7305H69.2274ZM77.4234 33.7305C76.753 33.7305 76.2596 33.5629 75.943 33.2277C75.6265 32.8864 75.4682 32.3712 75.4682 31.6822V27.4274H77.293V31.496C77.293 31.8746 77.4699 32.0639 77.8237 32.0639H81.8644V27.4274H83.652V33.7305H77.4234ZM87.0378 33.7305C86.3612 33.7305 85.8647 33.5629 85.5481 33.2277C85.2378 32.8926 85.0826 32.3774 85.0826 31.6822V27.4274H86.8888V31.496C86.8888 31.8746 87.0688 32.0639 87.4288 32.0639H92.1398V33.7305H87.0378ZM94.759 33.7305C94.2127 33.7305 93.8279 33.6095 93.6045 33.3674C93.3872 33.1253 93.2786 32.7715 93.2786 32.306V31.4588C93.2786 30.9932 93.3872 30.6395 93.6045 30.3974C93.8279 30.1553 94.2127 30.0343 94.759 30.0343H99.8796V29.6619C99.8796 29.277 99.6965 29.0846 99.3303 29.0846H93.4369V27.4274H99.7214C100.398 27.4274 100.891 27.595 101.202 27.9301C101.518 28.2653 101.677 28.7805 101.677 29.4757V33.7305H94.759ZM99.8796 31.1608H95.4293C95.1934 31.1608 95.0755 31.2819 95.0755 31.5239V31.8591C95.0755 32.1012 95.1934 32.2222 95.4293 32.2222H99.8796V31.1608ZM109.946 33.7305C109.896 33.6933 109.856 33.6436 109.825 33.5815C109.794 33.5195 109.778 33.4326 109.778 33.3208V32.0826C109.778 31.9398 109.741 31.8405 109.666 31.7846C109.592 31.7226 109.483 31.6915 109.34 31.6915H104.927V33.7305H103.121V27.4274H109.992C110.538 27.4274 110.923 27.5484 111.147 27.7905C111.37 28.0326 111.482 28.3864 111.482 28.8519V29.6898C111.482 29.9505 111.457 30.1584 111.407 30.3136C111.358 30.4626 111.293 30.5805 111.212 30.6674C111.137 30.7481 111.05 30.807 110.951 30.8443C110.852 30.8753 110.756 30.9001 110.663 30.9188C110.756 30.9312 110.855 30.956 110.96 30.9933C111.066 31.0243 111.165 31.0832 111.258 31.1701C111.352 31.257 111.426 31.375 111.482 31.5239C111.544 31.6729 111.575 31.8653 111.575 32.1012V33.3208C111.575 33.4326 111.59 33.5195 111.622 33.5815C111.653 33.6436 111.693 33.6933 111.743 33.7305H109.946ZM109.685 29.2895C109.685 29.0474 109.567 28.9264 109.331 28.9264H104.927V30.3415H109.294C109.418 30.3415 109.514 30.3136 109.583 30.2577C109.651 30.2019 109.685 30.1088 109.685 29.9784V29.2895ZM114.78 33.7305C114.104 33.7305 113.607 33.5629 113.29 33.2277C112.974 32.8926 112.816 32.3774 112.816 31.6822V28.8519C112.816 28.3926 112.927 28.0419 113.151 27.7998C113.374 27.5515 113.762 27.4274 114.315 27.4274H119.733C120.279 27.4274 120.664 27.5484 120.888 27.7905C121.111 28.0326 121.223 28.3864 121.223 28.8519V29.7177C121.223 30.1832 121.111 30.537 120.888 30.7791C120.664 31.0212 120.279 31.1422 119.733 31.1422H114.631V31.496C114.631 31.8746 114.811 32.0639 115.171 32.0639H121.065V33.7305H114.78ZM119.426 29.2895C119.426 29.0474 119.308 28.9264 119.072 28.9264H114.976C114.746 28.9264 114.631 29.0474 114.631 29.2895V30.0064H119.072C119.308 30.0064 119.426 29.8853 119.426 29.6432V29.2895ZM122.631 33.7305V32.2222H128.608C128.844 32.2222 128.962 32.1012 128.962 31.8591V31.5053C128.962 31.3998 128.934 31.3129 128.878 31.2446C128.829 31.1764 128.742 31.1422 128.617 31.1422H124.111C123.565 31.1422 123.18 31.0212 122.957 30.7791C122.74 30.5308 122.631 30.1739 122.631 29.7084V28.8519C122.631 28.3864 122.74 28.0326 122.957 27.7905C123.18 27.5484 123.565 27.4274 124.111 27.4274H130.601V28.9264H124.782C124.546 28.9264 124.428 29.0474 124.428 29.2895V29.606C124.428 29.8481 124.546 29.9691 124.782 29.9691H129.269C129.815 29.9691 130.2 30.0932 130.424 30.3415C130.647 30.5836 130.759 30.9374 130.759 31.4029V32.306C130.759 32.7715 130.647 33.1253 130.424 33.3674C130.2 33.6095 129.815 33.7305 129.269 33.7305H122.631ZM137.995 33.7305C137.319 33.7305 136.822 33.5629 136.506 33.2277C136.189 32.8926 136.031 32.3774 136.031 31.6822V28.8519C136.031 28.3926 136.142 28.0419 136.366 27.7998C136.589 27.5515 136.977 27.4274 137.53 27.4274H142.948C143.495 27.4274 143.879 27.5484 144.103 27.7905C144.326 28.0326 144.438 28.3864 144.438 28.8519V29.7177C144.438 30.1832 144.326 30.537 144.103 30.7791C143.879 31.0212 143.495 31.1422 142.948 31.1422H137.846V31.496C137.846 31.8746 138.026 32.0639 138.386 32.0639H144.28V33.7305H137.995ZM142.641 29.2895C142.641 29.0474 142.523 28.9264 142.287 28.9264H138.191C137.961 28.9264 137.846 29.0474 137.846 29.2895V30.0064H142.287C142.523 30.0064 142.641 29.8853 142.641 29.6432V29.2895ZM149.861 33.7305V27.4274H151.667V33.7305H149.861ZM159.562 33.7305V29.6619C159.562 29.277 159.382 29.0846 159.022 29.0846H154.935V33.7305H153.129V27.4274H159.404C160.08 27.4274 160.577 27.5981 160.893 27.9395C161.21 28.2746 161.368 28.7867 161.368 29.4757V33.7305H159.562ZM164.594 31.9895V33.7305H162.798V27.4274H171.205V29.0846H164.594V30.4998H171.149V31.9895H164.594ZM174.32 33.7305C173.644 33.7305 173.147 33.5629 172.83 33.2277C172.514 32.8926 172.356 32.3774 172.356 31.6822V29.4757C172.356 28.7805 172.514 28.2653 172.83 27.9301C173.147 27.595 173.644 27.4274 174.32 27.4274H178.798C179.475 27.4274 179.972 27.595 180.288 27.9301C180.605 28.2653 180.763 28.7805 180.763 29.4757V31.6822C180.763 32.3774 180.605 32.8926 180.288 33.2277C179.972 33.5629 179.475 33.7305 178.798 33.7305H174.32ZM178.957 29.6619C178.957 29.277 178.774 29.0846 178.407 29.0846H174.711C174.351 29.0846 174.171 29.277 174.171 29.6619V31.496C174.171 31.8746 174.351 32.0639 174.711 32.0639H178.407C178.774 32.0639 178.957 31.8746 178.957 31.496V29.6619ZM188.996 33.7305C188.947 33.6933 188.906 33.6436 188.875 33.5815C188.844 33.5195 188.829 33.4326 188.829 33.3208V32.0826C188.829 31.9398 188.791 31.8405 188.717 31.7846C188.643 31.7226 188.534 31.6915 188.391 31.6915H183.978V33.7305H182.172V27.4274H189.043C189.589 27.4274 189.974 27.5484 190.197 27.7905C190.421 28.0326 190.533 28.3864 190.533 28.8519V29.6898C190.533 29.9505 190.508 30.1584 190.458 30.3136C190.408 30.4626 190.343 30.5805 190.263 30.6674C190.188 30.7481 190.101 30.807 190.002 30.8443C189.903 30.8753 189.806 30.9001 189.713 30.9188C189.806 30.9312 189.906 30.956 190.011 30.9933C190.117 31.0243 190.216 31.0832 190.309 31.1701C190.402 31.257 190.477 31.375 190.533 31.5239C190.595 31.6729 190.626 31.8653 190.626 32.1012V33.3208C190.626 33.4326 190.641 33.5195 190.672 33.5815C190.703 33.6436 190.744 33.6933 190.793 33.7305H188.996ZM188.736 29.2895C188.736 29.0474 188.618 28.9264 188.382 28.9264H183.978V30.3415H188.345C188.469 30.3415 188.565 30.3136 188.633 30.2577C188.701 30.2019 188.736 30.1088 188.736 29.9784V29.2895ZM200.581 33.7305V29.6619C200.581 29.277 200.401 29.0846 200.041 29.0846H198.058V33.7305H196.251V29.0846H193.747V33.7305H191.941V27.4274H200.423C201.099 27.4274 201.596 27.5981 201.912 27.9395C202.229 28.2746 202.387 28.7867 202.387 29.4757V33.7305H200.581ZM205.262 33.7305C204.716 33.7305 204.331 33.6095 204.108 33.3674C203.89 33.1253 203.782 32.7715 203.782 32.306V31.4588C203.782 30.9932 203.89 30.6395 204.108 30.3974C204.331 30.1553 204.716 30.0343 205.262 30.0343H210.383V29.6619C210.383 29.277 210.2 29.0846 209.834 29.0846H203.94V27.4274H210.225C210.901 27.4274 211.395 27.595 211.705 27.9301C212.022 28.2653 212.18 28.7805 212.18 29.4757V33.7305H205.262ZM210.383 31.1608H205.933C205.697 31.1608 205.579 31.2819 205.579 31.5239V31.8591C205.579 32.1012 205.697 32.2222 205.933 32.2222H210.383V31.1608ZM206.203 27.0364V26.2264L210.132 25.1277V26.1798L206.203 27.0364ZM216.492 33.7305V29.0846H213.317V27.4274H221.473V29.0846H218.289V33.7305H216.492ZM222.63 33.7305V27.4274H224.436V33.7305H222.63ZM227.788 33.7305C227.111 33.7305 226.615 33.5629 226.298 33.2277C225.982 32.8926 225.823 32.3774 225.823 31.6822V29.4757C225.823 28.7805 225.982 28.2653 226.298 27.9301C226.615 27.595 227.111 27.4274 227.788 27.4274H233.653V29.0846H228.179C227.819 29.0846 227.639 29.277 227.639 29.6619V31.496C227.639 31.8746 227.819 32.0639 228.179 32.0639H233.653V33.7305H227.788ZM236.501 33.7305C235.954 33.7305 235.57 33.6095 235.346 33.3674C235.129 33.1253 235.02 32.7715 235.02 32.306V31.4588C235.02 30.9932 235.129 30.6395 235.346 30.3974C235.57 30.1553 235.954 30.0343 236.501 30.0343H241.621V29.6619C241.621 29.277 241.438 29.0846 241.072 29.0846H235.179V27.4274H241.463C242.14 27.4274 242.633 27.595 242.943 27.9301C243.26 28.2653 243.418 28.7805 243.418 29.4757V33.7305H236.501ZM241.621 31.1608H237.171C236.935 31.1608 236.817 31.2819 236.817 31.5239V31.8591C236.817 32.1012 236.935 32.2222 237.171 32.2222H241.621V31.1608Z" fill="white"/>
</svg>
