<svg width="146" height="36" viewBox="0 0 146 36" fill="none" xmlns="http://www.w3.org/2000/svg">
<g clip-path="url(#clip0_18_398)">
<path d="M34.4173 32.8918H26.2481L23.8237 26.8994H10.3314L8.06507 32.8918H0.106689L12.2287 2.55847H20.925L34.4173 32.8918ZM16.7613 9.77059L12.2814 21.5963H21.5574L16.7613 9.77059Z" fill="white"/>
<path d="M63.721 2.55847H70.2564V32.8918H62.7197V14.013L54.6032 23.5054H53.4437L45.3272 13.96V32.8388H37.8431V2.55847H44.3785L54.0761 13.8539L63.721 2.55847Z" fill="white"/>
<path d="M89.2828 2.55847C100.298 2.55847 105.99 9.45241 105.99 17.7782C105.99 26.4751 100.509 32.8918 88.4922 32.8918H76.0012V2.55847H89.2828ZM83.538 27.3236H88.4395C95.9762 27.3236 98.2425 22.1797 98.2425 17.7251C98.2425 12.4751 95.4492 8.12665 88.3341 8.12665H83.538V27.3236Z" fill="white"/>
<path d="M136.453 9.77055H120.905L111.419 0.225098H145.94V34.9069L136.453 25.4145V9.77055Z" fill="white"/>
<path d="M120.905 25.4145V11.6797L111.155 21.4903V35.2251H124.805L134.556 25.4145H120.905Z" fill="white"/>
</g>
<defs>
<clipPath id="clip0_18_398">
<rect width="145.833" height="35" fill="white" transform="translate(0.106689 0.225098)"/>
</clipPath>
</defs>
</svg>
