<svg width="35" height="43" viewBox="0 0 35 43" fill="none" xmlns="http://www.w3.org/2000/svg">
<g clip-path="url(#clip0_18_392)">
<path d="M33.875 15.0858C31.0895 16.8071 29.369 19.7579 29.369 23.0366C29.369 26.7251 31.581 30.0858 34.9401 31.4792C34.2846 33.6104 33.3015 35.5776 32.0726 37.3809C30.2702 39.9218 28.3858 42.5448 25.6003 42.5448C22.8148 42.5448 21.9955 40.9055 18.7184 40.9055C15.5232 40.9055 14.3762 42.6268 11.7545 42.6268C9.13283 42.6268 7.33043 40.2497 5.28223 37.2989C2.57862 33.2005 1.02199 28.4464 0.940063 23.4464C0.940063 15.3317 6.18344 10.9874 11.4268 10.9874C14.2124 10.9874 16.5063 12.7907 18.2268 12.7907C19.8654 12.7907 22.4871 10.9055 25.6003 10.9055C28.8774 10.8235 31.9907 12.3809 33.875 15.0858ZM24.1256 7.46283C25.5184 5.82349 26.2557 3.77431 26.3377 1.64316C26.3377 1.39726 26.3377 1.06939 26.2557 0.823486C23.8798 1.06939 21.6678 2.21693 20.1111 4.02021C18.7184 5.57758 17.8991 7.5448 17.8172 9.67595C17.8172 9.92185 17.8172 10.1677 17.8991 10.4136C18.063 10.4136 18.3087 10.4956 18.4726 10.4956C20.6846 10.3317 22.7328 9.18414 24.1256 7.46283Z" fill="white"/>
</g>
<defs>
<clipPath id="clip0_18_392">
<rect width="34" height="41.8033" fill="white" transform="translate(0.940063 0.823486)"/>
</clipPath>
</defs>
</svg>
