<svg width="151" height="32" viewBox="0 0 151 32" fill="none" xmlns="http://www.w3.org/2000/svg">
<g clip-path="url(#clip0_108_402)">
<path d="M64.4591 0.574951H41.4957C36.1749 0.574951 33.7665 3.88288 33.2624 7.07868V0.574951H20.4925C18.7003 0.574951 17.8602 1.13562 17.02 2.36908L13.5475 7.47115H64.4591V0.574951ZM0.889648 27.4869H10.019L21.4447 8.98495L13.2675 8.20001L0.889648 27.4869ZM73.3084 0.574951H65.8033V7.47115H73.3084V0.574951ZM121.083 11.3397L97.5039 9.93808C97.5039 13.5263 99.8563 15.9933 103.889 16.2736L120.635 17.5631C121.924 17.6753 122.708 18.0117 122.708 19.0769C122.708 20.0861 121.812 20.4786 119.907 20.4786H97.0559V27.4869H120.411C127.748 27.4869 130.997 24.9079 130.997 19.0209C131.109 13.7506 128.196 11.7883 121.083 11.3397Z" fill="white"/>
<path d="M97.2239 9.93808L89.8308 9.48954V17.3949C89.8308 19.8619 88.5986 20.6468 84.286 20.6468H78.3491C74.8206 20.6468 73.3084 19.6376 73.3084 17.3949V8.76068L65.8033 8.20001V18.0677H65.6352C65.1872 15.2083 64.123 11.9004 56.954 11.3958L33.4305 9.82594C33.4305 13.4142 36.0069 15.6008 40.0395 15.9933L56.4499 17.6753C57.7381 17.7874 58.6902 18.1799 58.6902 19.2451C58.6902 20.4225 57.7381 20.5347 56.2259 20.5347H33.1504V9.76988L25.6453 9.26528V27.4869H56.2819C63.1149 27.4869 65.2992 23.9547 65.6352 20.9832H65.8033C66.6434 25.6928 70.732 27.4869 77.677 27.4869H85.2942C93.4154 27.4869 97.2239 25.02 97.2239 19.1891V9.93808ZM130.549 7.47115V0.574951H105.289C100.024 0.574951 97.672 3.82682 97.2239 6.96655C97.2239 7.02261 97.2239 7.02261 97.2239 7.07868V0.574951H89.8308V7.47115H130.549Z" fill="white"/>
</g>
<defs>
<clipPath id="clip0_108_402">
<rect width="150" height="31" fill="white" transform="translate(0.889648 0.574951)"/>
</clipPath>
</defs>
</svg>
