<svg width="199" height="47" viewBox="0 0 199 47" fill="none" xmlns="http://www.w3.org/2000/svg">
<g clip-path="url(#clip0_108_390)">
<path d="M56.8199 23.5448V23.5C56.7931 22.2565 57.018 21.0204 57.4811 19.8659C57.9443 18.7114 58.6361 17.6622 59.5151 16.7815C60.3941 15.9008 61.4421 15.2065 62.5962 14.7405C63.7504 14.2744 64.9869 14.0462 66.2315 14.0695C67.553 14.0202 68.8701 14.2478 70.0981 14.7376C71.3262 15.2275 72.438 15.9688 73.3621 16.9139L71.3056 19.2917C70.6481 18.5947 69.8587 18.0351 68.983 17.6453C68.1073 17.2556 67.1629 17.0436 66.2046 17.0215C62.7381 17.0215 60.1876 19.8839 60.1876 23.4551V23.5089C60.1876 27.0981 62.7112 29.9604 66.2046 29.9604C67.1915 29.9503 68.1657 29.7372 69.0665 29.3342C69.9673 28.9313 70.7754 28.3473 71.4403 27.6185L73.4968 29.7002C72.5797 30.7526 71.4402 31.5882 70.1604 32.1469C68.8807 32.7055 67.4927 32.9732 66.0968 32.9305C64.8649 32.9441 63.6428 32.7097 62.5035 32.2414C61.3642 31.773 60.3308 31.0803 59.4651 30.2044C58.5994 29.3286 57.9191 28.2876 57.4646 27.1434C57.0102 25.9993 56.7909 24.7754 56.8199 23.5448Z" fill="white"/>
<path d="M79.0378 23.5448V23.5C79.1066 21.024 80.1375 18.6721 81.9121 16.9426C83.6867 15.2132 86.0656 14.242 88.5446 14.235C91.0236 14.228 93.4079 15.1857 95.1922 16.9051C96.9766 18.6246 98.0208 20.9706 98.1035 23.4461V23.5C98.0335 25.9758 97.0015 28.3271 95.2261 30.0557C93.4507 31.7843 91.0714 32.7542 88.5925 32.7601C86.1135 32.7659 83.7297 31.8072 81.9462 30.087C80.1626 28.3668 79.1195 26.0203 79.0378 23.5448ZM94.7448 23.5448V23.5C94.7724 22.6654 94.6331 21.8338 94.3351 21.0537C94.0372 20.2736 93.5865 19.5606 93.0096 18.9566C92.4326 18.3525 91.7409 17.8695 90.9748 17.5357C90.2088 17.2019 89.3839 17.0241 88.5482 17.0126C87.7164 17.0142 86.8934 17.1839 86.1289 17.5115C85.3643 17.839 84.674 18.3177 84.0993 18.9187C83.5247 19.5197 83.0776 20.2305 82.785 21.0086C82.4924 21.7866 82.3602 22.6158 82.3966 23.4461V23.5C82.3665 24.3342 82.5045 25.1659 82.8025 25.9457C83.1006 26.7255 83.5524 27.4375 84.1313 28.0393C84.7102 28.6412 85.4043 29.1206 86.1724 29.4491C86.9404 29.7776 87.7667 29.9484 88.6021 29.9515C89.4323 29.9536 90.2543 29.7872 91.0183 29.4625C91.7823 29.1378 92.4724 28.6615 93.0467 28.0625C93.621 27.4635 94.0676 26.7543 94.3595 25.9777C94.6514 25.2012 94.7825 24.3735 94.7448 23.5448Z" fill="white"/>
<path d="M105.504 14.3836H113.631C115.552 14.2735 117.441 14.9174 118.894 16.1781C119.393 16.7063 119.783 17.3276 120.042 18.0066C120.301 18.6856 120.423 19.4089 120.402 20.1352V20.189C120.443 21.47 120.032 22.7245 119.24 23.7332C118.449 24.742 117.328 25.4407 116.074 25.7073L121.004 32.6075H117.196L112.706 26.2547H108.728V32.6075H105.53L105.504 14.3836ZM113.388 23.4193C115.687 23.4193 117.142 22.2169 117.142 20.3685V20.3236C117.142 18.3675 115.741 17.2997 113.37 17.2997H108.728V23.4193H113.388Z" fill="white"/>
<path d="M126.617 29.9516L128.548 27.6635C130.091 29.1653 132.15 30.0222 134.304 30.0592C136.289 30.0592 137.537 29.1619 137.537 27.7622C137.537 26.4611 136.81 25.7523 133.424 24.9716C129.536 24.0743 127.353 22.8899 127.353 19.534V19.4802C127.353 16.3576 129.958 14.1952 133.577 14.1952C135.964 14.1357 138.295 14.9206 140.159 16.4115L138.435 18.8342C137.036 17.685 135.297 17.0262 133.487 16.9588C131.61 16.9588 130.514 17.9279 130.514 19.1213V19.1751C130.514 20.5839 131.35 21.203 134.87 22.0375C138.723 22.9348 140.707 24.3525 140.707 27.3763V27.4302C140.707 30.8399 138.013 32.8678 134.187 32.8678C131.389 32.8684 128.691 31.829 126.617 29.9516Z" fill="white"/>
<path d="M154.097 14.2579H157.07L165.09 32.6075H161.713L159.863 28.2108H151.241L149.365 32.6075H146.087L154.097 14.2579ZM158.686 25.3664L155.534 18.0804L152.409 25.3664H158.686Z" fill="white"/>
<path d="M171.915 14.3835H175.112V32.6075H171.915V14.3835Z" fill="white"/>
<path d="M183.5 14.3836H191.627C193.548 14.2735 195.437 14.9174 196.89 16.1781C197.892 17.2381 198.434 18.6507 198.398 20.1083V20.189C198.438 21.4738 198.023 22.7313 197.226 23.7406C196.43 24.7498 195.302 25.4462 194.043 25.7073L198.964 32.6075H195.156L190.666 26.2547H186.652V32.6075H183.446L183.5 14.3836ZM191.393 23.4193C193.684 23.4193 195.147 22.2169 195.147 20.3685V20.3236C195.147 18.3675 193.737 17.2997 191.367 17.2997H186.706V23.4193H191.393Z" fill="white"/>
<path d="M26.5286 0C26.5286 0 30.4082 7.86923 29.6987 11.1533C29.6987 11.1533 39.8198 14.4194 40.9423 19.8121C40.9423 19.8121 46.4833 12.5262 26.5286 0Z" fill="white"/>
<path d="M22.631 11.8083C23.5129 13.9336 24.1866 16.1393 24.6426 18.3944L18.922 16.232C19.4518 12.7325 16.0482 7.41162 16.0482 7.41162L22.631 11.8083Z" fill="white"/>
<path d="M12.3932 17.2279C13.1115 19.068 13.6968 20.9571 14.1444 22.8809L8.93569 21.5888C9.47452 18.0893 6.16968 13.8541 6.16968 13.8541L12.3932 17.2279Z" fill="white"/>
<path d="M23.7266 8.8114C23.7266 8.8114 46.9324 25.0972 48.459 31.4141C49.6175 36.1697 46.2588 40.5575 46.2588 40.5575C46.2588 40.5575 44.4627 28.157 0 46.9911C2.27224 44.5425 4.00564 41.6453 5.08841 38.4864C6.17118 35.3274 6.57927 31.9767 6.28638 28.6505C6.0335 25.8869 5.29476 23.1897 4.10411 20.6825L14.5215 26.2098C14.5215 26.3713 14.5215 26.5329 14.5665 26.7033C14.9592 30.7717 14.6555 34.8772 13.6684 38.8437C15.8819 34.2089 16.7974 29.0616 16.3177 23.9487C16.0522 20.8255 15.2755 17.7669 14.0186 14.895L25.1545 22.3156C25.1994 22.6835 25.2264 23.0514 25.2623 23.4282C25.704 27.9148 25.2957 32.4444 24.0589 36.7799C26.3944 32.4764 27.5898 27.6476 27.5317 22.7525C27.4735 17.8573 26.1637 13.0583 23.7266 8.8114Z" fill="white"/>
</g>
<defs>
<clipPath id="clip0_108_390">
<rect width="199" height="47" fill="white"/>
</clipPath>
</defs>
</svg>
