<svg width="188" height="50" viewBox="0 0 188 50" fill="none" xmlns="http://www.w3.org/2000/svg">
<g clip-path="url(#clip0_108_381)">
<path d="M42.5906 19.6186H48.9381C48.9381 19.6186 50.3653 15.3907 50.4849 15.0462C50.7816 14.8995 63.9519 8.23686 63.9519 8.23686L65.3229 4.19922H58.9754C58.9754 4.19922 58.3988 5.91276 58.299 6.21866C58.0066 6.36289 48.7454 11.0297 48.3967 11.2076C48.0943 10.9713 42.6398 6.81056 42.1293 6.42258C42.2995 5.92767 42.8901 4.19922 42.8901 4.19922H36.5299L35.2306 8.06276C35.2306 8.06276 43.6495 14.5127 44.1795 14.9156C43.963 15.5647 42.5906 19.6186 42.5906 19.6186Z" fill="white"/>
<path d="M96.1247 13.3582L94.0028 19.6168H122.792L124.168 15.5505H102.319C103.708 15.0258 111.948 11.9693 111.948 11.9693C111.948 11.9693 105.386 8.73615 104.421 8.26488H126.639L128.018 4.19739H99.2281L97.1708 10.2706C97.1708 10.2706 99.1831 11.2741 100.274 11.8325C98.9328 12.3199 96.1247 13.3582 96.1247 13.3582Z" fill="white"/>
<path d="M11.5307 4.19922H5.23241L0 19.6186H6.31095L11.5307 4.19922Z" fill="white"/>
<path d="M33.3896 4.19922H27.6327C27.6327 4.19922 25.8889 9.33734 25.7047 9.87206H11.2675L9.88098 13.9457H24.3323C23.9723 14.994 22.403 19.6199 22.403 19.6199H28.7519L33.9731 4.19922H33.3896Z" fill="white"/>
<path d="M72.5023 8.26794H88.5903C88.5075 8.50793 88.2416 9.28014 88.1531 9.54377C87.8718 9.64324 82.8547 11.5135 82.7421 11.5495H73.0338L71.6572 15.6157H83.7701L93.6949 11.93L96.316 4.19922H67.5413L62.2948 19.6186H68.6493L72.5023 8.26794Z" fill="white"/>
<path d="M127.546 14.4562L125.796 19.6179H132.141C132.141 19.6179 133.224 16.4111 133.472 15.6997C131.562 15.2359 129.593 14.8293 127.546 14.4562Z" fill="white"/>
<path d="M147.972 15.4131C141.621 13.5065 134.98 12.4556 128.275 12.2956L131.017 4.19922H159.811L157.126 12.1128L147.972 15.4131ZM135.998 8.26669C135.928 8.46938 135.717 9.07746 135.5 9.72034L135.493 9.74148C135.25 10.454 135 11.1889 134.875 11.5495H146.663L147.54 11.22C148.886 10.7151 151.384 9.77754 151.603 9.70169C151.651 9.55621 151.743 9.28263 151.85 8.95559L152.082 8.26297H135.998V8.26669Z" fill="white"/>
<path d="M188 49.947C183.685 38.6163 177.141 30.5721 169.729 24.8806C176.372 19.1605 180.906 11.4123 181.721 0.929565C181.721 0.929565 179.009 11.3538 164.463 21.3018C142.835 8.28236 116.965 11.9756 116.965 11.9756C132.015 12.9263 146.538 17.2711 159.15 24.5959C145.519 32.2545 123.93 38.8563 89.9113 39.0789C89.9113 39.0789 138.603 45.5674 165.128 28.3275C174.119 34.2991 181.86 41.616 188 49.947Z" fill="white"/>
</g>
<defs>
<clipPath id="clip0_108_381">
<rect width="188" height="50" fill="white"/>
</clipPath>
</defs>
</svg>
