<svg width="116" height="46" viewBox="0 0 116 46" fill="none" xmlns="http://www.w3.org/2000/svg">
<path d="M10.1904 1.72607H2.05981V9.83704H10.1904V1.72607Z" fill="white"/>
<path d="M9.98795 43.9839V14.744H2.26245V43.955H9.98795V43.9839ZM61.144 44.2725V37.1141C60.0156 37.1141 59.0608 37.0564 58.3663 36.9409C57.5562 36.8255 56.9485 36.5368 56.5435 36.1327C56.1384 35.7286 55.878 35.1513 55.7333 34.372C55.6176 33.6503 55.5597 32.6978 55.5597 31.5432V21.354H61.144V14.744H55.5597V3.37132H47.8342V31.6298C47.8342 34.0256 48.0367 36.0461 48.4418 37.6625C48.8469 39.2501 49.5413 40.549 50.4962 41.5304C51.451 42.5118 52.7241 43.2045 54.2576 43.6375C55.8201 44.0705 57.7876 44.2725 60.1313 44.2725H61.144ZM105.356 43.9839V1.11987H97.6304V43.9839H105.356ZM40.398 17.6305C38.2569 15.3213 35.2477 14.1667 31.4284 14.1667C29.5766 14.1667 27.8694 14.5419 26.3648 15.2924C24.8313 16.0429 23.5582 17.082 22.5166 18.4098L22.1115 18.9582V18.4675V14.744H14.5017V43.955H22.1693V28.397V29.465C22.1693 29.2918 22.1693 29.1186 22.1693 28.9454C22.2561 26.2033 22.9216 24.1827 24.1948 22.8838C25.5547 21.4983 27.2039 20.8056 29.0847 20.8056C31.3126 20.8056 33.0198 21.4983 34.1482 22.8261C35.2477 24.1539 35.8264 26.0301 35.8264 28.4258V28.5124V43.955H43.6098V27.3867C43.6387 23.2302 42.5392 19.9396 40.398 17.6305ZM93.6374 29.3206C93.6374 27.2135 93.2613 25.2507 92.5379 23.4034C91.7856 21.5849 90.744 19.9685 89.4419 18.583C88.1109 17.1975 86.5195 16.1295 84.6677 15.3502C82.8159 14.5708 80.7616 14.1956 78.5336 14.1956C76.4214 14.1956 74.4249 14.5997 72.5731 15.379C70.7213 16.1872 69.101 17.2552 67.7411 18.6119C66.3812 19.9685 65.2817 21.5849 64.5004 23.4323C63.6903 25.2796 63.3141 27.2713 63.3141 29.3784C63.3141 31.4855 63.6903 33.4772 64.4426 35.3245C65.1949 37.1718 66.2654 38.7882 67.5964 40.1449C68.9274 41.5015 70.5767 42.5984 72.4863 43.3777C74.396 44.1859 76.5082 44.59 78.7651 44.59C85.3043 44.59 89.3551 41.617 91.7856 38.846L86.2302 34.6317C85.0728 36.0172 82.2951 37.8934 78.823 37.8934C76.6529 37.8934 74.859 37.4027 73.499 36.3925C72.1391 35.4111 71.2132 34.0256 70.7213 32.3226L70.6345 32.0628H93.6374V29.3206ZM70.6924 26.6362C70.6924 24.5002 73.1518 20.7767 78.4468 20.7478C83.7418 20.7478 86.2302 24.4714 86.2302 26.6074L70.6924 26.6362ZM114.152 40.2892C114.007 39.9428 113.805 39.6542 113.544 39.3944C113.284 39.1346 112.995 38.9326 112.647 38.7882C112.3 38.6439 111.924 38.5573 111.548 38.5573C111.143 38.5573 110.796 38.6439 110.448 38.7882C110.101 38.9326 109.812 39.1346 109.551 39.3944C109.291 39.6542 109.088 39.9428 108.944 40.2892C108.799 40.6356 108.712 41.0108 108.712 41.3861C108.712 41.7902 108.799 42.1365 108.944 42.4829C109.088 42.8293 109.291 43.1179 109.551 43.3777C109.812 43.6375 110.101 43.8396 110.448 43.9839C110.796 44.1282 111.172 44.2148 111.548 44.2148C111.953 44.2148 112.3 44.1282 112.647 43.9839C112.995 43.8396 113.284 43.6375 113.544 43.3777C113.805 43.1179 114.007 42.8293 114.152 42.4829C114.297 42.1365 114.383 41.7613 114.383 41.3861C114.383 41.0108 114.297 40.6356 114.152 40.2892ZM113.689 42.3097C113.573 42.5984 113.4 42.8582 113.197 43.0602C112.995 43.2623 112.734 43.4355 112.445 43.5509C112.155 43.6664 111.866 43.7241 111.519 43.7241C111.201 43.7241 110.882 43.6664 110.593 43.5509C110.304 43.4355 110.043 43.2623 109.841 43.0602C109.638 42.8582 109.465 42.5984 109.349 42.3097C109.233 42.0211 109.175 41.7324 109.175 41.3861C109.175 41.0686 109.233 40.751 109.349 40.4624C109.465 40.1738 109.638 39.914 109.841 39.7119C110.043 39.5099 110.304 39.3367 110.593 39.2212C110.882 39.1058 111.172 39.048 111.519 39.048C111.837 39.048 112.155 39.1058 112.445 39.2212C112.734 39.3367 112.995 39.5099 113.197 39.7119C113.4 39.914 113.573 40.1738 113.689 40.4624C113.805 40.751 113.863 41.0397 113.863 41.3861C113.863 41.7324 113.805 42.0211 113.689 42.3097ZM112.069 41.6459C112.3 41.617 112.474 41.5304 112.618 41.3861C112.763 41.2417 112.85 41.0397 112.85 40.751C112.85 40.4335 112.763 40.2026 112.561 40.0294C112.387 39.8562 112.069 39.7696 111.693 39.7696H110.419V43.0314H111.027V41.7036H111.461L112.271 43.0314H112.908L112.069 41.6459ZM111.75 41.1552C111.664 41.1552 111.577 41.1552 111.461 41.1552H111.027V40.2315H111.461C111.548 40.2315 111.635 40.2315 111.75 40.2315C111.837 40.2315 111.924 40.2603 112.011 40.2892C112.098 40.3181 112.155 40.3758 112.184 40.4335C112.242 40.4913 112.242 40.5779 112.242 40.6933C112.242 40.8088 112.213 40.8954 112.184 40.9531C112.127 41.0108 112.069 41.0686 112.011 41.0974C111.924 41.1263 111.837 41.1552 111.75 41.1552Z" fill="white"/>
</svg>
