<svg width="48" height="46" viewBox="0 0 48 46" fill="none" xmlns="http://www.w3.org/2000/svg">
<g clip-path="url(#clip0_18_406)">
<path d="M34.612 38.9105L31.7156 44.5264H32.3763L33.2724 42.7754H35.327L35.0464 42.2129H33.562L34.5124 40.3712L36.377 44.091C36.4494 44.2452 36.5399 44.3541 36.6485 44.4267C36.7571 44.4992 36.9019 44.5264 37.0739 44.5264H37.7618L34.9288 38.9105H34.612Z" fill="white"/>
<path d="M27.3618 43.1021L25.1081 39.0376H23.9857V44.5265H24.565V40.2715L26.9455 44.5265H27.2442L29.5613 40.2987V43.9368C29.5613 44.0638 29.5884 44.1636 29.6337 44.2453C29.6789 44.3178 29.7423 44.3813 29.8147 44.4267C29.8871 44.4721 29.9595 44.4993 30.041 44.5084C30.1225 44.5174 30.1949 44.5265 30.2582 44.5265H30.6927V39.0376H29.5884L27.3618 43.1021Z" fill="white"/>
<path d="M43.5636 39.0467C43.5274 39.0557 43.4822 39.0648 43.446 39.092C43.4098 39.1193 43.3736 39.1465 43.3555 39.1828C43.3283 39.2281 43.3192 39.2735 43.3192 39.337V42.8753L39.5539 39.0376H38.8298V44.5265H39.4906V40.3894L43.3102 44.3904C43.4641 44.5356 43.6813 44.5265 43.8895 44.5265H43.9709V39.0376H43.6722C43.636 39.0376 43.5998 39.0376 43.5636 39.0467Z" fill="white"/>
<path d="M47.0302 34.7916C47.0302 34.4922 46.8401 34.3743 46.4962 34.3743H45.9712V35.7896H46.2065V35.1817H46.4147L46.7677 35.7896H47.0392L46.65 35.1727C46.8673 35.1454 47.0302 35.0456 47.0302 34.7916ZM46.1975 34.9912V34.5739H46.4871C46.6229 34.5739 46.7858 34.6011 46.7858 34.7735C46.7858 34.964 46.65 34.9912 46.4871 34.9912H46.1975Z" fill="white"/>
<path d="M22.1755 40.4983C22.1755 39.9903 21.9402 39.5911 21.379 39.3098C20.8179 39.0286 19.958 39.0376 19.958 39.0376H17.8853V44.5265H19.0167V42.0134H19.5959L21.2614 44.082C21.2614 44.082 21.4876 44.3814 21.7049 44.454C21.9131 44.5265 22.1031 44.5265 22.1031 44.5265H22.972L20.8088 41.9046C21.8768 41.6052 22.1755 41.0064 22.1755 40.4983ZM20.3924 41.4146C20.0575 41.6142 19.5326 41.6052 19.5326 41.6052H19.0076V39.5276H19.7589C20.13 39.5276 20.3381 39.6273 20.3381 39.6273C20.7002 39.7725 20.9627 40.1354 20.9627 40.5346C20.9627 40.9338 20.7273 41.2151 20.3924 41.4146Z" fill="white"/>
<path d="M46.4418 33.83C45.7539 33.83 45.1837 34.3925 45.1837 35.082C45.1837 35.7806 45.7449 36.334 46.4418 36.334C47.1297 36.334 47.7 35.7715 47.7 35.082C47.7 34.3925 47.1388 33.83 46.4418 33.83ZM46.4418 36.1072C45.8807 36.1072 45.419 35.6535 45.419 35.091C45.419 34.5285 45.8716 34.0749 46.4418 34.0749C47.003 34.0749 47.4646 34.5285 47.4646 35.091C47.4646 35.6445 47.0121 36.1072 46.4418 36.1072Z" fill="white"/>
<path d="M8.56251 41.4781H5.76568V39.0376H4.63428V44.5265H5.76568V41.968H8.56251V43.9368C8.56251 44.0638 8.58967 44.1636 8.63492 44.2453C8.68018 44.3178 8.74354 44.3813 8.81595 44.4267C8.88836 44.4721 8.96077 44.4993 9.04223 44.5084C9.12369 44.5265 9.1961 44.5265 9.25946 44.5265H9.69392V39.0376H8.56251V41.4781Z" fill="white"/>
<path d="M2.57962 43.9187L2.00939 42.8027H1.82837L2.49816 44.091L1.94604 45.2251H2.11801L3.30372 42.8027H3.13175L2.57962 43.9187Z" fill="white"/>
<path d="M24.4655 14.6595C24.4655 12.2916 24.2392 12.1011 23.3341 12.1011H21.9764V17.1726H23.3341C24.2392 17.1726 24.4655 17.0275 24.4655 14.6595Z" fill="white"/>
<path d="M0 36.2977H43.9618V0.225098H0V36.2977ZM28.7558 10.6676H31.2358V23.5961C31.2358 24.3037 31.806 24.8753 32.512 24.8753C33.218 24.8753 33.7883 24.3037 33.7883 23.5961V20.965H36.2773V25.7735H28.7467V10.6676H28.7558ZM19.4964 10.6676H24.4655C25.4249 10.6676 26.9455 11.457 26.9455 13.1263V15.7029C26.9455 16.4559 26.2848 17.7896 25.3072 17.7896C26.2848 17.7896 26.9455 18.6334 26.9455 19.2775V23.8047C26.9455 24.5759 26.321 25.7826 24.4655 25.7826H19.4964V10.6676ZM15.1337 23.5779V10.6676H17.6228V23.1424C17.6228 24.6485 16.6452 26.0003 13.8574 26.0003C11.0697 26.0003 10.0921 24.2311 10.0921 23.1424V20.965H12.5722V23.5961C12.5722 24.3037 13.1424 24.8753 13.8484 24.8753C14.5634 24.8753 15.1337 24.2856 15.1337 23.5779ZM9.893 17.8894C9.893 17.091 10.5356 16.4559 11.3321 16.4559C12.1287 16.4559 12.7713 17.1001 12.7713 17.8894C12.7713 18.6787 12.1287 19.3229 11.3321 19.3229C10.5356 19.3229 9.893 18.6787 9.893 17.8894ZM13.6221 10.6676L11.3231 15.8934L9.02408 10.6676H13.6221Z" fill="white"/>
<path d="M0.896114 42.7664C0.642679 42.7664 0.488808 42.8662 0.325886 43.0295V41.968H0.162964V44.3178C0.380194 44.3995 0.534064 44.4358 0.72414 44.4358C1.25816 44.4358 1.61116 44.091 1.61116 43.5466C1.60211 43.093 1.31247 42.7664 0.896114 42.7664ZM0.715089 44.2634C0.588372 44.2634 0.470706 44.2452 0.325886 44.1908V43.22C0.515962 43.0023 0.678884 42.9116 0.878011 42.9116C1.1948 42.9116 1.42109 43.1837 1.42109 43.5648C1.42109 43.9731 1.13145 44.2634 0.715089 44.2634Z" fill="white"/>
<path d="M13.6583 38.9105L10.7528 44.5264H11.4135L13.5587 40.3712L14.4819 42.222H12.9885L12.6988 42.7845H14.7625L15.4142 44.091C15.4866 44.2452 15.5771 44.3541 15.6857 44.4267C15.7943 44.4992 15.9392 44.5264 16.1111 44.5264H16.8081L13.975 38.9105H13.6583Z" fill="white"/>
<path d="M23.488 18.4519H21.9855V24.5396H23.488C24.4655 24.5396 24.4655 23.8773 24.4655 21.5094C24.4655 19.1414 24.4655 18.4519 23.488 18.4519Z" fill="white"/>
</g>
<defs>
<clipPath id="clip0_18_406">
<rect width="47.7" height="45" fill="white" transform="translate(0 0.225098)"/>
</clipPath>
</defs>
</svg>
