<svg width="151" height="46" viewBox="0 0 151 46" fill="none" xmlns="http://www.w3.org/2000/svg">
<path d="M0.940063 32.1491V0.665894H6.47521V32.1491H0.940063Z" fill="white"/>
<path d="M20.644 9.3092C13.5472 9.3092 8.63611 14.761 8.63611 21.0012C8.63611 27.9656 13.9788 32.7633 20.6991 32.7633C27.0771 32.7633 32.6117 28.0539 32.6117 20.9861C32.6117 15.0429 28.0255 9.3092 20.644 9.3092ZM20.5788 14.6442C24.2927 14.6442 27.0264 17.5327 27.0264 21.0212C27.0264 24.72 24.0125 27.4182 20.6791 27.4182C16.7403 27.4182 14.2615 24.2991 14.2615 21.0312C14.2615 17.4493 17.0601 14.6442 20.5788 14.6442Z" fill="white"/>
<path d="M46.5188 9.3092C39.422 9.3092 34.5109 14.761 34.5109 21.0012C34.5109 27.9656 39.8536 32.7633 46.5739 32.7633C52.9519 32.7633 58.4865 28.0539 58.4865 20.9861C58.4865 16.8241 56.6826 14.9775 56.6826 14.9775L58.2168 14.4518V9.96337H50.3553C50.3553 9.96337 48.651 9.3092 46.5188 9.3092ZM46.4536 14.6442C50.1675 14.6442 52.9012 17.5327 52.9012 21.0212C52.9012 24.72 49.8873 27.4182 46.5539 27.4182C42.6151 27.4182 40.1363 24.2991 40.1363 21.0312C40.1363 17.4493 42.9349 14.6442 46.4536 14.6442Z" fill="white"/>
<path d="M52.8621 33.688C52.8621 37.3868 49.8481 40.1051 46.5147 40.1051C42.576 40.1051 40.0872 36.9558 40.0872 33.688H34.4718C34.4718 40.6524 39.8145 45.4501 46.5348 45.4501C52.9128 45.4501 58.4474 40.7557 58.4474 33.688H52.8621Z" fill="white"/>
<path d="M60.7036 32.1491V9.96338H66.2388V32.1491H60.7036Z" fill="white"/>
<path d="M71.6134 32.1492V14.9328H68.6453V9.96343H71.6134V3.15063H77.1486V9.96343H80.1969V14.9328H77.1486V32.1492H71.6134Z" fill="white"/>
<path d="M67.125 3.66221C67.125 5.6848 65.4839 7.32443 63.4596 7.32443C61.4353 7.32443 59.7943 5.6848 59.7943 3.66221C59.7943 1.63963 61.4353 0 63.4596 0C65.4839 0 67.125 1.63963 67.125 3.66221Z" fill="white"/>
<path d="M92.641 9.29419C85.5106 9.29419 80.9139 14.7489 80.9139 21.2016C80.9139 27.8698 85.5259 32.7784 92.7563 32.7784C99.501 32.7784 102.819 28.5704 102.819 28.5704L99.1187 24.8685C99.1187 24.8685 96.3249 27.8791 92.8265 27.8791C89.9101 27.8791 87.5784 26.2528 86.7649 23.2705H104.012V21.7476C104.012 15.6712 100.492 9.29419 92.641 9.29419ZM92.4655 14.1633C95.0153 14.1633 97.623 15.5263 98.2062 18.782H86.6145C87.0736 16.4935 89.0774 14.1633 92.4655 14.1633Z" fill="white"/>
<path d="M117.857 32.7812C110.707 32.7812 105.834 27.3398 105.834 20.924C105.834 14.3028 111.341 9.29004 117.834 9.29004C124.111 9.29004 127.324 13.7176 127.324 13.7176L123.463 17.558C123.463 17.558 121.227 14.6706 117.808 14.6706C114.019 14.6706 111.428 17.5665 111.428 21.0089C111.428 24.6436 114.184 27.4323 117.765 27.4323C121.239 27.4323 123.458 24.5495 123.458 24.5495L127.358 28.3879C127.358 28.3879 124.176 32.7812 117.857 32.7812Z" fill="white"/>
<path d="M129.371 32.1652V0.585815H134.907V12.1882C134.907 12.1882 137.026 9.29006 141.636 9.29006C147.432 9.29006 150.79 13.5949 150.79 19.1006V32.1652H145.255V19.9365C145.255 16.2376 142.95 14.7031 140.397 14.7031C137.488 14.7031 134.907 16.3572 134.907 20.2227V32.1652H129.371Z" fill="white"/>
</svg>
