<svg width="171" height="27" viewBox="0 0 171 27" fill="none" xmlns="http://www.w3.org/2000/svg">
<g clip-path="url(#clip0_108_365)">
<path d="M109.009 0.414795V3.29402H125.466L127.106 0.414795H109.009Z" fill="white"/>
<path d="M109.009 12.0562V14.9354H125.466L127.106 12.0562H109.009Z" fill="white"/>
<path d="M109.009 23.6975V26.5767H125.466L127.106 23.6975H109.009Z" fill="white"/>
<path d="M163.309 8.52147V6.862C163.309 6.01534 163.144 5.17698 162.824 4.39477C162.503 3.61257 162.034 2.90182 161.442 2.30315C160.851 1.70447 160.148 1.22957 159.375 0.905569C158.602 0.581568 157.774 0.414795 156.937 0.414795H145.203V26.5851H148.049V14.9686H153.379L160.02 26.5851H163.3L156.658 14.9686H156.929C157.766 14.9697 158.596 14.8038 159.37 14.4802C160.144 14.1567 160.847 13.682 161.44 13.0832C162.032 12.4845 162.502 11.7734 162.823 10.9906C163.143 10.2079 163.309 9.36882 163.309 8.52147ZM148.049 3.29407H156.937C157.872 3.29627 158.767 3.67287 159.428 4.34151C160.089 5.01016 160.461 5.9164 160.463 6.862V8.52147C160.461 9.46707 160.089 10.3733 159.428 11.042C158.767 11.7106 157.872 12.0872 156.937 12.0894H148.049V3.29407Z" fill="white"/>
<path d="M18.5153 8.52147V6.862C18.5153 6.01534 18.3505 5.17698 18.0303 4.39477C17.7101 3.61257 17.2408 2.90182 16.6492 2.30315C16.0575 1.70447 15.3552 1.22957 14.5822 0.905569C13.8092 0.581569 12.9807 0.414795 12.144 0.414795H0.409973V26.5851H3.25533V14.9686H8.60984L15.2517 26.5851H18.5317L11.8898 14.9686H12.1604C13.8473 14.9642 15.4637 14.283 16.655 13.0744C17.8463 11.8658 18.5153 10.2285 18.5153 8.52147ZM3.25533 3.29407H12.144C13.0785 3.29626 13.974 3.67287 14.6348 4.34151C15.2956 5.01016 15.6678 5.9164 15.6699 6.862V8.52147C15.6678 9.46707 15.2956 10.3733 14.6348 11.042C13.974 11.7106 13.0785 12.0872 12.144 12.0894H3.25533V3.29407Z" fill="white"/>
<path d="M45.6158 8.09826L52.9957 26.5767H56.0625L47.1492 4.25653L45.6158 0.414795L44.0824 4.25653L35.1692 26.5767H38.2359L45.6158 8.09826Z" fill="white"/>
<path d="M165.58 0.414795H167.392V0.779909H166.695V2.95384H166.285V0.779909H165.58V0.414795Z" fill="white"/>
<path d="M168.089 0.423096H168.786L169.327 2.40619L169.885 0.423096H170.59V2.95382H170.188V0.871138H170.147L169.557 2.85428H169.139L168.507 0.871138V2.95382H168.105L168.089 0.423096Z" fill="white"/>
<path d="M72.8066 0.414795V3.29402H86.0986L74.4548 23.6975L72.8066 26.5767H76.0947H89.3703L91.0103 23.6975H77.7347L89.3785 3.29402L91.0185 0.414795H87.7385H72.8066Z" fill="white"/>
<path d="M109.009 0.414795V3.29402H125.466L127.106 0.414795H109.009Z" fill="white"/>
<path d="M109.009 12.0562V14.9354H125.466L127.106 12.0562H109.009Z" fill="white"/>
<path d="M109.009 23.6975V26.5767H125.466L127.106 23.6975H109.009Z" fill="white"/>
<path d="M45.6158 8.09826L52.9957 26.5767H56.0625L47.1492 4.25653L45.6158 0.414795L44.0824 4.25653L35.1692 26.5767H38.2359L45.6158 8.09826Z" fill="white"/>
</g>
<defs>
<clipPath id="clip0_108_365">
<rect width="171" height="27" fill="white"/>
</clipPath>
</defs>
</svg>
