<svg width="151" height="24" viewBox="0 0 151 24" fill="none" xmlns="http://www.w3.org/2000/svg">
<g clip-path="url(#clip0_18_377)">
<path d="M6.6394 6.45771C6.52927 6.01647 6.5568 5.57522 6.61187 5.32702C6.74954 4.63757 7.2176 3.89296 8.56672 3.89296C9.83324 3.89296 10.5491 4.66515 10.5491 5.851C10.5491 6.23709 10.5491 7.17474 10.5491 7.17474H15.8905V5.65795C15.918 0.969702 11.7055 0.225098 8.67685 0.225098C4.87729 0.225098 1.76605 1.49368 1.18786 4.99608C1.02266 5.96131 0.99513 6.81623 1.24293 7.89176C2.17905 12.2767 9.8057 13.5452 10.907 16.3306C11.1273 16.8546 11.0447 17.5165 10.9621 17.9301C10.7969 18.6472 10.3013 19.3918 8.86958 19.3918C7.52046 19.3918 6.722 18.6196 6.722 17.4337V15.3654H0.940063V17.0201C0.940063 21.8186 4.71209 23.2527 8.73191 23.2527C12.6141 23.2527 15.7804 21.9289 16.3035 18.3438C16.5513 16.4961 16.3586 15.2827 16.276 14.8414C15.3949 10.291 7.24513 8.96731 6.6394 6.45771ZM76.3806 6.48529C76.298 6.07162 76.3255 5.6028 76.3531 5.38217C76.5183 4.69272 76.9588 3.94812 78.3079 3.94812C79.5469 3.94812 80.2627 4.7203 80.2627 5.87858C80.2627 6.26467 80.2627 7.20232 80.2627 7.20232H85.5491V5.71311C85.5491 1.08001 81.4191 0.362987 78.418 0.362987C74.646 0.362987 71.5623 1.60399 70.9841 5.07881C70.8465 6.01647 70.7914 6.87138 71.0392 7.94692C71.9478 12.2767 79.4918 13.5452 80.5931 16.303C80.7859 16.827 80.7308 17.4889 80.6207 17.875C80.4555 18.592 79.9874 19.309 78.5557 19.309C77.2341 19.309 76.4081 18.5368 76.4081 17.3786V15.3102H70.7088V16.9373C70.7088 21.6807 74.4257 23.1148 78.418 23.1148C82.2451 23.1148 85.4114 21.791 85.907 18.2611C86.1548 16.4133 85.9621 15.2275 85.8795 14.7862C85.026 10.3186 76.9863 8.99488 76.3806 6.48529ZM125.059 18.2059L120.02 0.914546H112.063V22.1771H117.322L117.019 4.33421L122.443 22.1771H130.07V0.914546H124.784L125.059 18.2059ZM23.9026 0.914546L19.9103 22.3978H25.6923L28.6934 2.51407L31.6119 22.3978H37.3663L33.4291 0.914546H23.9026ZM56.2815 0.914546L53.5832 17.7095L50.885 0.914546H42.1295L41.6614 22.3978H47.0304L47.168 2.51407L50.8575 22.3978H56.2815L59.9709 2.51407L60.1086 22.3978H65.4775L65.0094 0.914546H56.2815ZM106.116 0.914546H100.692V16.7994C100.692 17.0752 100.692 17.3786 100.637 17.6268C100.527 18.1508 100.087 19.1987 98.5722 19.1987C97.0854 19.1987 96.6449 18.1783 96.5348 17.6268C96.4797 17.4062 96.4797 17.0752 96.4797 16.7994V0.914546H91.0557V16.303C91.0557 16.6891 91.0832 17.5165 91.1108 17.7095C91.4962 21.7083 94.635 23.0321 98.5722 23.0321C102.509 23.0321 105.676 21.7359 106.061 17.7095C106.089 17.4889 106.144 16.6891 106.116 16.303V0.914546ZM143.341 10.3186V13.4625H145.544V16.5788C145.544 16.8546 145.544 17.158 145.489 17.4062C145.406 17.9853 144.855 18.9781 143.286 18.9781C141.744 18.9781 141.193 17.9853 141.111 17.4062C141.083 17.158 141.056 16.8546 141.056 16.5788V6.76107C141.056 6.40256 141.083 6.04404 141.166 5.74069C141.276 5.2167 141.744 4.19632 143.286 4.19632C144.938 4.19632 145.323 5.27186 145.433 5.74069C145.489 6.04404 145.489 6.56802 145.489 6.56802V7.75387H150.885V7.03685C150.885 7.03685 150.913 6.29224 150.857 5.6028C150.444 1.60399 147.113 0.335409 143.313 0.335409C139.514 0.335409 136.265 1.63157 135.797 5.63037C135.742 5.98889 135.687 6.65076 135.687 7.06443V16.0824C135.687 16.4685 135.687 16.7719 135.769 17.4889C136.127 21.405 139.514 22.7839 143.313 22.7839C147.141 22.7839 150.5 21.405 150.857 17.4889C150.913 16.7719 150.94 16.4685 150.94 16.0824V10.3186H143.341Z" fill="white"/>
</g>
<defs>
<clipPath id="clip0_18_377">
<rect width="150" height="23" fill="white" transform="translate(0.940063 0.225098)"/>
</clipPath>
</defs>
</svg>
